<svg xmlns="http://www.w3.org/2000/svg" viewBox="0 0 58.99 43.21"><defs><style>.cls-1{fill:#444;}</style></defs><g id="Layer_2" data-name="Layer 2"><g id="Layer_1-2" data-name="Layer 1"><path class="cls-1" d="M54.23,16.69a3.07,3.07,0,0,0,1.69.49h0a3.25,3.25,0,0,0,1.88-.59,3,3,0,0,0,1.05-3.36,3.8,3.8,0,0,0-2.32-2.39l-.92-.38.86-.51a6.07,6.07,0,0,1,.89-.42.86.86,0,0,0,.48-.44.83.83,0,0,0,0-.64A.85.85,0,0,0,56.77,8a6.4,6.4,0,0,0-3.11,2.35l-.12.18-.21,0a7.08,7.08,0,0,0-3,1.39l-.47.36-.28-.51C45.81,5,37.62.55,28.7.55a26.48,26.48,0,0,0-9,1.53l-.26.09L19.24,2C16.61-.06,12.9-.55,8.78.63a.85.85,0,0,0-.59.6.85.85,0,0,0,.23.8,9,9,0,0,1,2.75,5l.05.28L11,7.45A13.73,13.73,0,0,0,7.29,12.7,5.91,5.91,0,0,1,6,14.84a2,2,0,0,1-1.21.22H3.84a3.85,3.85,0,0,0-2.49.66C-.36,17.11-.39,23,.94,24.61c.24.3,1,1.19,4.47,1.35l1,0-.68.78a3.53,3.53,0,0,1-1.37,1,.85.85,0,0,0-.46.45.79.79,0,0,0,0,.64c.11.29,1.29,2.8,6.57,3h.21l.14.15a19.17,19.17,0,0,0,4,3.26l.25.14v.29c0,3.25.42,5.58,1.24,6.4,1.07,1.06,3.32,1.14,4,1.14.85,0,2.93-.12,3.81-1.21a7.07,7.07,0,0,0,.94-2.71l.09-.45.46,0a26.84,26.84,0,0,0,8.9-.47l.53-.11.08.53a6.28,6.28,0,0,0,1.07,3.23c.85.84,2.63,1.14,4,1.14.84,0,2.9-.12,3.78-1.21s1.37-4.34,1.2-8.58v-.24l.18-.16A17.61,17.61,0,0,0,51.67,19.8a16.32,16.32,0,0,0-1-5.56l-.11-.31.23-.23a6.45,6.45,0,0,1,1.12-.87l.79-.47,0,.91A3.86,3.86,0,0,0,54.23,16.69ZM54.4,13a3.6,3.6,0,0,1,.09-.5l.12-.44.44.07.21,0a2.49,2.49,0,0,1,2,1.48,1.35,1.35,0,0,1-.41,1.55,1.52,1.52,0,0,1-.89.28,1.39,1.39,0,0,1-.75-.21A2.38,2.38,0,0,1,54.4,13ZM43.83,32.17a.85.85,0,0,0-.31.69c.13,2.17.09,7-.78,8.08a4,4,0,0,1-2.48.59A5.22,5.22,0,0,1,37.51,41l-.08-.09a11.83,11.83,0,0,1-.72-3.68.82.82,0,0,0-.36-.63.84.84,0,0,0-.72-.12,25.6,25.6,0,0,1-11,.63.87.87,0,0,0-.64.15.84.84,0,0,0-.33.56,13.59,13.59,0,0,1-.75,3.11l-.09.1a4.15,4.15,0,0,1-2.46.55,4.8,4.8,0,0,1-2.77-.63c-.64-.8-.82-4-.75-6a.86.86,0,0,0-.47-.78,17.3,17.3,0,0,1-4.64-3.68.85.85,0,0,0-.64-.3,9,9,0,0,1-4.5-.94L6,28.86l.53-.46a4.48,4.48,0,0,0,1.63-3.28.79.79,0,0,0-.26-.6.87.87,0,0,0-.63-.23h-.8c-2,0-3.7-.28-4.15-.69-.88-1.07-.79-5.63.07-6.56a2.15,2.15,0,0,1,1.47-.33h.92a3.37,3.37,0,0,0,2.3-.62,7.19,7.19,0,0,0,1.76-2.73,12,12,0,0,1,3.83-5.12.81.81,0,0,0,.28-.84,10.28,10.28,0,0,0-1.85-4.86l-.48-.67.82-.12a8.66,8.66,0,0,1,7.09,1.81.9.9,0,0,0,1.05.34,24.8,24.8,0,0,1,9.13-1.7C40.44,2.22,50,10.11,50,19.8A16.09,16.09,0,0,1,43.83,32.17Z"/><path class="cls-1" d="M29.81,29.5V27.23a3,3,0,0,0,2-1.33,5.94,5.94,0,0,0,.66-3.12,8,8,0,0,0-.29-2.44,2.2,2.2,0,0,0-.8-1.18,3.63,3.63,0,0,0-1-.43l-.25-.05-1.59-.3a1.7,1.7,0,0,1-.56-.19.61.61,0,0,1-.23-.42,4.8,4.8,0,0,1-.07-1A1.53,1.53,0,0,1,28,15.59a2.18,2.18,0,0,1,1.33-.34,14.54,14.54,0,0,1,2.13.18l.4.06V13a4,4,0,0,0-.89-.24,7,7,0,0,0-.78-.11l-.39,0V10.5H27.44v2.18a3.27,3.27,0,0,0-2.21,1.26,4.9,4.9,0,0,0-.74,3,9.39,9.39,0,0,0,.21,2.23,2.36,2.36,0,0,0,.71,1.26,3.09,3.09,0,0,0,1.22.59l.23.05,1.56.33a1.68,1.68,0,0,1,.6.19.63.63,0,0,1,.26.43,4.45,4.45,0,0,1,.09,1.08,1.56,1.56,0,0,1-.44,1.31,2.69,2.69,0,0,1-1.49.31c-.41,0-.87,0-1.39-.06s-.8-.07-1.11-.12l-.17,0v2.48a11.67,11.67,0,0,0,2.32.38l.35,0V29.5Z"/></g></g></svg>