<?xml version="1.0" encoding="utf-8"?>
<!-- Generator: Adobe Illustrator 24.3.0, SVG Export Plug-In . SVG Version: 6.00 Build 0)  -->
<svg version="1.1"
	 id="Layer_1" xmlns:cc="http://creativecommons.org/ns#" xmlns:dc="http://purl.org/dc/elements/1.1/" xmlns:inkscape="http://www.inkscape.org/namespaces/inkscape" xmlns:rdf="http://www.w3.org/1999/02/22-rdf-syntax-ns#" xmlns:sodipodi="http://sodipodi.sourceforge.net/DTD/sodipodi-0.dtd" xmlns:svg="http://www.w3.org/2000/svg"
	 xmlns="http://www.w3.org/2000/svg" xmlns:xlink="http://www.w3.org/1999/xlink" x="0px" y="0px" viewBox="0 0 284.4 300"
	 style="enable-background:new 0 0 284.4 300;" xml:space="preserve">
<style type="text/css">
	.st0{fill:#444444;}
</style>
<g>
	<path class="st0" d="M279.4,176.3c0-0.3-0.1-0.5-0.1-0.7c0-0.1-0.1-0.2-0.1-0.4c-3.7-20.3-13.5-38.9-28.4-53.9l-69.4-69.4
		c-5.6-5.6-12.7-8.8-20.7-9.4l-19.8-1.2h-0.2c-14.9-13.5-34.2-21-54.4-21.1c-20.1-0.2-39.4,7.1-54.3,20.3
		c-6.2-9.3-5.1-21.7,2.8-29.6c1.8-1.8,1.8-4.9,0-6.6c-0.8-0.8-2.1-1.3-3.3-1.3s-2.5,0.5-3.3,1.3C16.5,15.7,15.2,34,25,46.9
		C11.6,62,4.2,81.4,4.2,101.7c0,20.3,7.5,39.8,21,54.7c0,0.1,0,0.1,0,0.2l-0.1,0.1l1.4,19.4c0.6,7.9,4,15.2,9.4,20.7l69.6,69.6
		c14.6,14.6,33.3,24.5,54,28.4c0.1,0,0.2,0,0.3,0.1c0.2,0.1,0.4,0.1,0.6,0.1c5.9,1,11.9,1.5,17.8,1.5c27.1,0,53.3-10.6,72.6-30
		C274.6,243.1,285.2,209.3,279.4,176.3z M269.9,175.1L159.4,285.6c-17.7-3.7-33.9-12.4-46.8-25.3l-8.3-8.3l59.3-199.3
		c4.4,1,8.3,3.2,11.4,6.3l69.5,69.4C257.4,141.3,266.2,157.4,269.9,175.1z M123.8,153.3l-27.2,90.9l-53.8-53.8
		c-3.1-3.1-5.3-7.1-6.1-11.2L123.8,153.3z M150,50.9l3.9,0.4l-1.1,3.5C152,53.4,151.1,52.2,150,50.9z M51.4,165.1
		c-6.3-3.5-11.8-7.6-16.5-12.3c-28.2-28.2-28.2-74,0-102.2c13.6-13.6,31.7-21.1,51-21.2c0.1,0,0.1,0,0.2,0c19.2,0,37.3,7.4,50.8,21
		c4.7,4.7,8.8,10.2,12.3,16.5l-22.2,75.7L51.4,165.1z M39.5,168.6l-3.5,1.1l-0.4-4C36.8,166.7,38.1,167.6,39.5,168.6z M244.5,260.2
		c-19.4,19.4-46.1,29.2-73.3,26.9l100.2-100.2C273.7,214.1,263.9,240.8,244.5,260.2z"/>
	<path class="st0" d="M57.1,114.8c-2,0-3.9,0.8-5.3,2.2c-2.9,2.9-2.9,7.7,0,10.6c1.4,1.4,3.3,2.2,5.3,2.2c2,0,3.9-0.8,5.3-2.2
		c1.4-1.4,2.2-3.3,2.2-5.3c0-2-0.8-3.9-2.2-5.3S59.1,114.8,57.1,114.8z"/>
	<path class="st0" d="M108.2,119.9l-4,4c-0.8,0.8-1.3,2.1-1.3,3.3c0,1.3,0.5,2.5,1.3,3.3c0.9,0.9,2.1,1.3,3.3,1.3
		c1.2,0,2.4-0.4,3.3-1.3l4-4c0.8-0.8,1.3-2.1,1.3-3.3s-0.5-2.5-1.3-3.3C113.1,118.2,110,118.2,108.2,119.9z"/>
	<path class="st0" d="M96.3,112c-7.2,7.2-7.2,19.3,0,26.4c3.6,3.6,8.4,5.5,13.2,5.5c4.8,0,9.6-1.8,13.2-5.5c7.3-7.3,7.3-19.1,0-26.4
		C115.5,104.7,103.6,104.7,96.3,112z M116.1,131.8c-3.6,3.6-9.6,3.6-13.1,0c-1.7-1.7-2.7-4.1-2.7-6.6c0-2.5,0.9-4.8,2.7-6.6
		c1.8-1.8,4.2-2.7,6.6-2.7c2.4,0,4.8,0.9,6.6,2.7C119.7,122.2,119.7,128.3,116.1,131.8z"/>
	<path class="st0" d="M105.6,81.3c1.9,0,3.8-0.7,5.3-2.2c1.4-1.4,2.2-3.3,2.2-5.3c0-2-0.8-3.9-2.2-5.3c-1.4-1.4-3.3-2.2-5.3-2.2
		s-3.9,0.8-5.3,2.2c-2.9,2.9-2.9,7.7,0,10.6C101.7,80.6,103.7,81.3,105.6,81.3z"/>
</g>
</svg>
