<?xml version="1.0" encoding="utf-8"?>
<!-- Generator: Adobe Illustrator 24.3.1, SVG Export Plug-In . SVG Version: 6.00 Build 0)  -->
<svg version="1.1" id="Layer_1" xmlns="http://www.w3.org/2000/svg" xmlns:xlink="http://www.w3.org/1999/xlink" x="0px" y="0px"
	 viewBox="0 0 300 300" style="enable-background:new 0 0 300 300;" xml:space="preserve">
<style type="text/css">
	.st0{fill:#444444;}
</style>
<path class="st0" d="M176.8,222.4l-47.9,19.2c-1.1,0.4-1.6,1.7-1.2,2.7c0.3,0.8,1.1,1.3,1.9,1.3c0.3,0,0.5-0.1,0.8-0.2l47.9-19.2
	c1.1-0.4,1.6-1.7,1.2-2.7C179.1,222.5,177.9,221.9,176.8,222.4z"/>
<path class="st0" d="M132.6,208.5c0.3,0,0.5-0.1,0.8-0.2l101.7-40.8c1.1-0.4,1.6-1.7,1.2-2.7c-0.4-1.1-1.7-1.6-2.7-1.2l-101.7,40.8
	c-1.1,0.4-1.6,1.7-1.2,2.7C131,208,131.8,208.5,132.6,208.5z"/>
<path class="st0" d="M74.1,195.5l46.4,24.1v22.9c0,1.2,0.9,2.1,2.1,2.1c1.2,0,2.1-0.9,2.1-2.1v-12.7l9.1-3.7
	c1.1-0.4,1.6-1.7,1.2-2.7c-0.4-1.1-1.7-1.6-2.7-1.2l-7.5,3V206c0-1.2-0.9-2.1-2.1-2.1c-1.2,0-2.1,0.9-2.1,2.1v8.9l-44.5-23.1
	c-1-0.5-2.3-0.1-2.8,0.9C72.7,193.7,73.1,195,74.1,195.5z"/>
<path class="st0" d="M289.1,196.3l-13.9-7.2v-49.6l13.6-5.5c1.1-0.4,1.8-1.5,1.9-2.6c0.1-1.2-0.6-2.3-1.6-2.8L186,75.1
	c-0.8-0.4-1.7-0.4-2.5-0.1l-165,66.2c-1.5,0.5-8.6,3.6-8.6,14.9c0,2.9-0.1,6.5-0.3,10.4c-0.8,23.4-0.7,43.1,8.6,47.9l103.1,53.5
	c0.4,0.2,0.9,0.3,1.4,0.3c0.4,0,0.8-0.1,1.1-0.2l165.1-66.3c1.1-0.4,1.8-1.5,1.9-2.6C290.8,197.9,290.2,196.8,289.1,196.3z
	 M184.5,81l96.1,49.8l-157.7,63.3l-96.1-49.8L184.5,81z M121.3,200.1c0.4,0.2,0.9,0.3,1.4,0.3c0.4,0,0.8-0.1,1.1-0.2l145.5-58.4
	v33.1l-59.6,23.9c-1.1,0.4-1.6,1.7-1.2,2.7c0.3,0.8,1.1,1.3,1.9,1.3c0.3,0,0.5-0.1,0.8-0.2l58-23.3v15.8L122.8,254L21.7,201.6v-7.8
	L70.1,219c0.3,0.2,0.6,0.2,1,0.2c0.8,0,1.5-0.4,1.9-1.1c0.5-1,0.1-2.3-0.9-2.8l-50.4-26.1v-29.9l36.7,19c0.3,0.2,0.6,0.2,1,0.2
	c0.8,0,1.5-0.4,1.9-1.1c0.5-1,0.1-2.3-0.9-2.8l-38.7-20v-6.1L121.3,200.1z M122.8,261.9L20.9,209.1c-6.7-3.5-5.8-28.8-5.3-42.4
	c0.1-4,0.3-7.6,0.3-10.6c0-3.1,0.7-5.2,1.6-6.6v53.4c0,0.8,0.4,1.5,1.1,1.9l103.1,53.5c0,0,0.1,0,0.1,0c0.3,0.1,0.6,0.2,0.9,0.2
	c0,0,0,0,0,0l0,0l0,0c0.3,0,0.5-0.1,0.8-0.2l148.8-59.7l0,0c0,0,0,0,0,0l0.8-0.3c0,0,0,0,0,0c1.4-0.6,2.2-1,2.2-1.9v-0.5l5.3,2.8
	L122.8,261.9z"/>
</svg>
