<svg xmlns="http://www.w3.org/2000/svg" viewBox="0 0 59 46.73"><defs><style>.cls-1{fill:#444;}</style></defs><g id="Layer_2" data-name="Layer 2"><g id="Layer_1-2" data-name="Layer 1"><path class="cls-1" d="M43.46,22a26.21,26.21,0,0,0-14-4.29,26.31,26.31,0,0,0-14,4.28,21.48,21.48,0,0,0-4.27,3.54c-1,1.09-1.72,2-1.72,3.27s.71,2.12,1.72,3.24a21.43,21.43,0,0,0,4.27,3.54,26.32,26.32,0,0,0,14,4.31,26.32,26.32,0,0,0,14-4.31,21.43,21.43,0,0,0,4.27-3.54c1-1.12,1.72-2,1.72-3.24s-.74-2.18-1.72-3.27A21.12,21.12,0,0,0,43.46,22ZM19.88,36a26.14,26.14,0,0,1-3.41-1.85,20.07,20.07,0,0,1-3.92-3.24,7.25,7.25,0,0,1-1.1-1.65l-.17,0v-.81l.18,0a6.85,6.85,0,0,1,1.1-1.66,19.45,19.45,0,0,1,3.92-3.26,24.43,24.43,0,0,1,3.41-1.83l1.69-.76-1.08,1.51a11,11,0,0,0,0,12.88l1.09,1.52Zm9.62,2.17a9.37,9.37,0,1,1,9.36-9.36A9.37,9.37,0,0,1,29.5,38.18Zm18-8.92a7,7,0,0,1-1.1,1.66,20.07,20.07,0,0,1-3.92,3.24A26.14,26.14,0,0,1,39.12,36l-1.7.77,1.09-1.52a11,11,0,0,0,0-12.88l-1.08-1.51,1.69.76a24.43,24.43,0,0,1,3.41,1.83,19.45,19.45,0,0,1,3.92,3.26,7,7,0,0,1,1.1,1.65l.17,0v.81Z"/><circle class="cls-1" cx="14.5" cy="6.32" r="1.55"/><path class="cls-1" d="M29.5,24.55a4.27,4.27,0,1,0,4.27,4.27A4.27,4.27,0,0,0,29.5,24.55Zm0,6.81a2.55,2.55,0,1,1,2.55-2.54A2.51,2.51,0,0,1,29.5,31.36Z"/><circle class="cls-1" cx="20.64" cy="6.32" r="1.55"/><path class="cls-1" d="M52.68,0H6.32A6.32,6.32,0,0,0,0,6.32V40.41a6.33,6.33,0,0,0,6.32,6.32H52.68A6.33,6.33,0,0,0,59,40.41V6.32A6.32,6.32,0,0,0,52.68,0Zm4.59,40.41A4.54,4.54,0,0,1,52.68,45H6.32a4.54,4.54,0,0,1-4.59-4.59V12.64H57.27Zm0-29.5H1.73V6.32A4.53,4.53,0,0,1,6.32,1.73H52.68a4.53,4.53,0,0,1,4.59,4.59Z"/><circle class="cls-1" cx="8.36" cy="6.32" r="1.55"/></g></g></svg>