<svg xmlns="http://www.w3.org/2000/svg" viewBox="0 0 58 58"><defs><style>.cls-1{fill:#444;}</style></defs><g id="Layer_2" data-name="Layer 2"><g id="Layer_1-2" data-name="Layer 1"><path class="cls-1" d="M47.75,11.25h-1v-1A10.26,10.26,0,0,0,36.5,0H10A10,10,0,0,0,0,10V36.5A10.26,10.26,0,0,0,10.25,46.75h1v1A10.26,10.26,0,0,0,21.5,58H48A10,10,0,0,0,58,48V21.5A10.26,10.26,0,0,0,47.75,11.25ZM11.25,23V45h-1a8.51,8.51,0,0,1-8.5-8.5V10.25a8.51,8.51,0,0,1,8.5-8.5H36.5a8.51,8.51,0,0,1,8.5,8.5v1H21.5A10.25,10.25,0,0,0,11.25,21.5ZM23.74,13h8.77L13,32.51V23.74ZM13,21.26V21a6.12,6.12,0,0,1,.78-3l.32-.59a8.52,8.52,0,0,1,3.28-3.27l.51-.29A6.47,6.47,0,0,1,21.05,13h.21ZM35,13h8.77L13,43.76V35Zm10,1.24V23L23,45H14.24Zm0,11.25v8.77L34.26,45H25.49Zm0,11.27a8.73,8.73,0,0,1-1.07,3.86,8.61,8.61,0,0,1-3.28,3.28A8.73,8.73,0,0,1,36.76,45ZM56.25,48A8.23,8.23,0,0,1,48,56.25H21.5a8.53,8.53,0,0,1-8.5-8.5v-1H36.76a9.9,9.9,0,0,0,7.36-3.24,10.41,10.41,0,0,0,2.63-7.08V13h1a8.52,8.52,0,0,1,8.5,8.5Z"/></g></g></svg>