<svg xmlns="http://www.w3.org/2000/svg" viewBox="0 0 58.57 55.12"><defs><style>.cls-1{fill:#444;}</style></defs><g id="Layer_2" data-name="Layer 2"><g id="Layer_1-2" data-name="Layer 1"><path class="cls-1" d="M47.85,4.07,47.42,4H33.48L33.2,3.2a4.77,4.77,0,0,0-9,0L23.9,4H9.8l-.42.18-.09.08-.2.36-9,26.72,0,.12,0,4.11a4.62,4.62,0,0,0,4.62,4.62H15.14a4.62,4.62,0,0,0,4.62-4.62V31.71a.34.34,0,0,0,0-.1l-.05-.27L11,5.62H23.89l.29.8a4.82,4.82,0,0,0,2.89,2.9l.8.28V53.49H13.66a.82.82,0,0,0-.82.81.82.82,0,0,0,.82.82H43.71a.82.82,0,0,0,.82-.82.82.82,0,0,0-.82-.81H29.5V9.6l.79-.29a4.79,4.79,0,0,0,2.9-2.9l.29-.79H46.35L37.67,31.34l0,.11,0,.26v3.86a4.63,4.63,0,0,0,4.62,4.62H52.75a4.63,4.63,0,0,0,4.62-4.62l0-4.23-9.16-27L48,4.13Zm-29.7,31.5a3,3,0,0,1-3,3H4.63a3,3,0,0,1-3-3V32.46H18.15Zm-.33-4.73H2L9.89,7.35ZM28.7,8A3.18,3.18,0,1,1,31.88,4.8,3.18,3.18,0,0,1,28.7,8ZM55.75,35.57a3,3,0,0,1-3,3H42.24a3,3,0,0,1-3-3V32.46h16.5Zm-.32-4.73H39.57L47.5,7.35Z"/><polygon class="cls-1" points="58.32 31.55 58.35 31.56 58.57 31.53 58.57 31.53 58.32 31.55"/></g></g></svg>