<svg xmlns="http://www.w3.org/2000/svg" viewBox="0 0 53.28 46.29"><defs><style>.cls-1{fill:#444;}</style></defs><g id="Layer_2" data-name="Layer 2"><g id="Layer_1-2" data-name="Layer 1"><path class="cls-1" d="M53.28,14.34A14.34,14.34,0,0,0,28.8,4.2L26.64,6.36,24.47,4.2A14.33,14.33,0,0,0,4.2,4.2a14.33,14.33,0,0,0-.78,19.43l2.43,2.49L25.6,45.87a1.52,1.52,0,0,0,2.08,0l21.4-21.4A14.28,14.28,0,0,0,53.28,14.34ZM3.4,20.55l-.11-.2A12.58,12.58,0,0,1,23.23,5.44l3.41,3.41,3.41-3.41A12.57,12.57,0,0,1,50,20.38l-.12.23-.37-.06H33a2.46,2.46,0,0,0-2.15,1.39L27,30.53,22.7,16.28a1.18,1.18,0,0,0-2.3-.14L16.61,24.7,15,19.4a1.33,1.33,0,0,0-1.06-1A1.3,1.3,0,0,0,12.7,19l-.86,1.09a1.13,1.13,0,0,1-.71.43ZM48,23.05l-.17.18L26.64,44.42,5.44,23.22a1.29,1.29,0,0,1-.16-.17l-.7-.74h6.53a2.87,2.87,0,0,0,2.05-1l.44-.55,1.74,5.81a1.18,1.18,0,0,0,2.31.15l3.78-8.56,4.26,14.22a1.19,1.19,0,0,0,2.32.15l4.43-9.86a.91.91,0,0,1,.49-.36H48.69Z"/></g></g></svg>