<svg xmlns="http://www.w3.org/2000/svg" viewBox="0 0 59.5 54.66"><defs><style>.cls-1{fill:#444;}</style></defs><g id="Layer_2" data-name="Layer 2"><g id="Layer_1-2" data-name="Layer 1"><path class="cls-1" d="M9.25,54.61a.87.87,0,0,0,.86-.86V45.89l.22,0a9.53,9.53,0,1,0-2.14-.06l.21,0v7.91A.86.86,0,0,0,9.25,54.61ZM8.11,44.07a7.8,7.8,0,1,1,2.27.08l-.27,0V37.72a.86.86,0,1,0-1.71,0v6.41Z"/><path class="cls-1" d="M38.26,40.46H31.11a.85.85,0,0,0-.85.85v7.93a.85.85,0,0,0,.85.85h7.15a.86.86,0,0,0,.86-.85V41.31A.86.86,0,0,0,38.26,40.46Zm-.85,7.93H32V42.16h5.45Z"/><path class="cls-1" d="M49.43,40.46H42.28a.85.85,0,0,0-.85.85v7.93a.85.85,0,0,0,.85.85h7.15a.85.85,0,0,0,.85-.85V41.31A.85.85,0,0,0,49.43,40.46Zm-.8,7.93h-5.5V42.16h5.5Z"/><path class="cls-1" d="M22.75,38.25h3.93a1.15,1.15,0,0,0,.92-1V29.29a.85.85,0,0,0-.85-.85H19.6a.86.86,0,1,0,0,1.71h6.3v6.58l-.38-.19H22.75a.85.85,0,0,0-.85.85A.86.86,0,0,0,22.75,38.25Z"/><path class="cls-1" d="M29.91,37.22a.87.87,0,0,0,.86.86h7.15a.86.86,0,0,0,.85-.86V29.29a.85.85,0,0,0-.85-.85H30.77a.86.86,0,0,0-.86.85Zm1.71-7.07h5.44v6.22H31.62Z"/><path class="cls-1" d="M49.08,28.44H41.93a.85.85,0,0,0-.85.85v7.93a.86.86,0,0,0,.85.86h7.15a.87.87,0,0,0,.86-.86V29.29A.86.86,0,0,0,49.08,28.44Zm-.85,7.93H42.79V30.15h5.44Z"/><path class="cls-1" d="M15.43,54.66H53.75a.86.86,0,0,0,.86-.85V25.29h4a.86.86,0,0,0,.71-.38.88.88,0,0,0,.08-.79l-7.35-18a.85.85,0,0,0-.78-.53H45.6V.85A.85.85,0,0,0,44.75,0H40.53a.85.85,0,0,0-.85.85V5.62H17.88a.86.86,0,0,0-.79.53l-7.5,18a.85.85,0,0,0,.08.8.86.86,0,0,0,.71.38H52.9V53h-25V41.31a.85.85,0,0,0-.85-.85H19.91a.85.85,0,0,0-.85.85V53H15.43a.86.86,0,0,0-.85.86A.85.85,0,0,0,15.43,54.66Zm26-53h2.51V10H41.38ZM11.66,23.59,18.45,7.33H39.68v3.52a.85.85,0,0,0,.85.85h4.22a.85.85,0,0,0,.85-.85V7.33h5.13l6.65,16.26Zm9.1,18.57h5.45V52.9H20.76Z"/></g></g></svg>