<svg xmlns="http://www.w3.org/2000/svg" viewBox="0 0 59.5 44.07"><defs><style>.cls-1{fill:#444;}</style></defs><g id="Layer_2" data-name="Layer 2"><g id="Layer_1-2" data-name="Layer 1"><path class="cls-1" d="M2.22,33.52l2.53.53L6,40.17a.7.7,0,0,0,.33.47.74.74,0,0,0,.56.11l15-3.11H22l30.55,6.41a.79.79,0,0,0,.56-.11.75.75,0,0,0,.33-.47l2.72-12.92,1.11-.23a.76.76,0,0,0,.58-.89L57.1,26l2.38-11.34a.73.73,0,0,0-.1-.56.78.78,0,0,0-.48-.33l-4.55-.95L51.81.59a.75.75,0,0,0-.33-.47.69.69,0,0,0-.56-.1L22,6,8.6,3.22a.73.73,0,0,0-.56.1.79.79,0,0,0-.33.47L6.57,9.2l-6,1.24a.74.74,0,0,0-.58.88l3,14.59L1.64,32.63a.76.76,0,0,0,.11.57A.72.72,0,0,0,2.22,33.52Zm5.12,5.62-1-4.76,11.9,2.5ZM50.49,1.63l2.26,10.83L50.63,12l-.41-2a.75.75,0,0,0-.59-.62,1,1,0,0,0-.3,0h0A4.73,4.73,0,0,1,43.76,5.8a.76.76,0,0,0-.89-.58L30.45,7.79l-4.83-1ZM49,11.69,45.78,11l.15-.47.93.26a5.13,5.13,0,0,0,.66.13c.39,0,1,.12,1,.11l.32,0Zm-3.11-1.16-.07.23-.08.24L34.12,8.56l8.37-1.73.08.2A6.11,6.11,0,0,0,45,10,5.69,5.69,0,0,0,45.93,10.53ZM9,4.83,57.86,15.06,52.09,42.44,3.26,32.21ZM1.64,11.75l4.6-.95L3.82,22.26Z"/><path class="cls-1" d="M11.21,31.73a.73.73,0,0,0,.48.32l32.87,6.86a.75.75,0,0,0,.89-.57,4.72,4.72,0,0,1,5.6-3.63.65.65,0,0,0,.39,0,.57.57,0,0,0,.22-.11.93.93,0,0,0,.17-.19.87.87,0,0,0,.11-.25l2.4-11.36a.78.78,0,0,0-.1-.56.73.73,0,0,0-.48-.32,4.69,4.69,0,0,1-3-2.05,4.62,4.62,0,0,1-.66-3.51.75.75,0,0,0-.11-.56.71.71,0,0,0-.47-.32L16.65,8.59a.73.73,0,0,0-.56.1.74.74,0,0,0-.33.48,4.73,4.73,0,0,1-5.59,3.62H10a.73.73,0,0,0-.41.12.71.71,0,0,0-.32.47L6.87,24.73a.76.76,0,0,0,0,.15.74.74,0,0,0,.31.61.83.83,0,0,0,.28.13,4.68,4.68,0,0,1,3.66,5.55A.69.69,0,0,0,11.21,31.73Zm-2.52-7.3-.2-.07,2.12-10,.32,0h.21a6.25,6.25,0,0,0,5.82-4l.07-.2,31.5,6.57V17a6.17,6.17,0,0,0,4,6.09l.2.07-2.11,10-.21,0a6.28,6.28,0,0,0-3.73,1h0a6.16,6.16,0,0,0-2.41,3l-.08.2-.21,0L12.68,30.74l0-.22a6.11,6.11,0,0,0-1-3.69A6.2,6.2,0,0,0,8.69,24.43Z"/><path class="cls-1" d="M22.47,22a8.33,8.33,0,0,0,8.14,10,8.32,8.32,0,0,0,7-12.87,8.22,8.22,0,0,0-5.25-3.59h0A8.31,8.31,0,0,0,22.47,22Zm13.82-2a6.79,6.79,0,0,1-5.68,10.5,7.3,7.3,0,0,1-1.4-.14A6.79,6.79,0,0,1,30.6,17a7.3,7.3,0,0,1,1.4.14A6.76,6.76,0,0,1,36.29,20Z"/></g></g></svg>