<?xml version="1.0" encoding="utf-8"?>
<!-- Generator: Adobe Illustrator 24.2.1, SVG Export Plug-In . SVG Version: 6.00 Build 0)  -->
<svg version="1.1"
	 id="Layer_1" xmlns:cc="http://creativecommons.org/ns#" xmlns:dc="http://purl.org/dc/elements/1.1/" xmlns:inkscape="http://www.inkscape.org/namespaces/inkscape" xmlns:rdf="http://www.w3.org/1999/02/22-rdf-syntax-ns#" xmlns:sodipodi="http://sodipodi.sourceforge.net/DTD/sodipodi-0.dtd" xmlns:svg="http://www.w3.org/2000/svg"
	 xmlns="http://www.w3.org/2000/svg" xmlns:xlink="http://www.w3.org/1999/xlink" x="0px" y="0px" viewBox="0 0 300 300"
	 style="enable-background:new 0 0 300 300;" xml:space="preserve">
<style type="text/css">
	.st0{fill:#444444;}
</style>
<g>
	<path class="st0" d="M107.3,216.7c1,0.9,2.3,1.4,3.6,1.3l132,0c0,0,0,0,0.1,0c1.3,0,2.6-0.5,3.5-1.4c1-0.9,1.5-2.2,1.5-3.5
		c0-2.8-2.2-5-4.9-5.1H111c-0.1,0-0.2,0-0.3,0c-0.1,0-0.2,0-0.2,0c-1.3,0.1-2.6,0.6-3.5,1.6c-0.9,1-1.4,2.3-1.3,3.6
		S106.4,215.8,107.3,216.7z"/>
	<path class="st0" d="M246.7,173.5c-0.9-1-2.2-1.5-3.5-1.5H111c-0.1,0-0.2,0-0.3,0c-0.1,0-0.2,0-0.2,0c-1.3,0.1-2.6,0.6-3.5,1.6
		c-0.9,1-1.4,2.3-1.3,3.6s0.6,2.6,1.6,3.5c1,0.9,2.3,1.4,3.6,1.3l132,0c0,0,0,0,0.1,0c1.3,0,2.6-0.5,3.5-1.4c1-0.9,1.5-2.2,1.5-3.5
		C248.1,175.7,247.6,174.5,246.7,173.5z"/>
	<path class="st0" d="M243,82H111c-0.2,0-0.3,0-0.5,0c-2.6,0.3-4.5,2.4-4.5,5v54c0,2.8,2.2,5,5,5h132c2.8,0,5-2.2,5-5V87
		C248,84.2,245.8,82,243,82z M238,136H116V92h122V136z"/>
	<path class="st0" d="M287,48c0-2.8-2.2-5-5-5H72c-0.2,0-0.3,0-0.5,0c-2.6,0.3-4.5,2.4-4.5,5v34H18c-2.8,0-5,2.2-5,5v139.5
		c0,17.1,14.1,30.5,32,30.5h211.9c17.2,0,30.1-13.1,30.1-30.5V48z M67,226.5c0,11.1-8.3,19.5-20.2,20.4c-0.1,0-0.3,0-0.4,0.1l-0.1,0
		H45c-13,0-22-8.4-22-20.5V92h44V226.5z M277,226.5c0,12.8-7.5,20.5-20.1,20.5H68.2l1.4-1.6c4.9-5.7,7.4-12.1,7.4-18.9V53h200V226.5
		z"/>
</g>
</svg>
