<?xml version="1.0" encoding="utf-8"?>
<!-- Generator: Adobe Illustrator 24.3.0, SVG Export Plug-In . SVG Version: 6.00 Build 0)  -->
<svg version="1.1" id="Layer_1" xmlns="http://www.w3.org/2000/svg" xmlns:xlink="http://www.w3.org/1999/xlink" x="0px" y="0px"
	 viewBox="0 0 268.7 266.2" style="enable-background:new 0 0 268.7 266.2;" xml:space="preserve">
<style type="text/css">
	.st0{fill:#444444;}
</style>
<g id="Layer_2_1_">
	<g id="Layer_1-2">
		<path class="st0" d="M137.6,120.6l33.9-48.2c1.4-1.8,1-4.3-0.8-5.7s-4.3-1-5.7,0.8c-0.1,0.1-0.1,0.2-0.2,0.3l-26,36.9l-2.1-1.9
			c-1.2-1-2.3-2-3.5-3c-1.6-1.4-6.9-5.8-8.6-7.2c-1,2.6-2.2,5.2-3.5,7.6c1.6,1.3,6.5,5.5,7.8,6.6c1.2,1,2.4,2.1,3.6,3.1l1.7,1.5
			L131,116c-0.6,0.9-0.9,2-0.7,3c0.2,1.1,0.8,2,1.7,2.6c0.7,0.5,1.5,0.7,2.3,0.8C135.6,122.3,136.9,121.7,137.6,120.6z"/>
		<path class="st0" d="M198.4,147.6c-5.9-0.6-11.9-0.2-17.7,1l-1.6,0.3l-1-1.3c-2.2-3-4.6-6.2-7.2-9.4c-5.8-7.1-15.6-17.7-22.4-24.6
			l-4.2,7c6,6.1,14.5,15.6,19.6,21.8l0,0l0.8,0.9c1.6,1.9,3,3.8,4.4,5.6l1.8,2.4l-2.7,1.4c-2.1,1-4,2.3-5.6,3.8
			c-1.5,1.7-1.4,4.2,0.3,5.7c1.5,1.4,3.9,1.4,5.5,0c1.7-1.3,3.5-2.4,5.5-3.1c3.9-1.6,8-2.6,12.2-3.2c2.3-0.3,4.6-0.5,6.9-0.5
			c1.6,0,3.1,0.1,4.7,0.2c11.7,1.2,20.9,6.6,27.2,16.1c1.2,1.9,3.7,2.4,5.5,1.2c0,0,0.1,0,0.1-0.1l0,0c1.9-1.2,2.4-3.8,1.1-5.6
			C223.9,155.8,212.5,149,198.4,147.6z"/>
		<path class="st0" d="M234.9,58.8c-1,0-1.9,0.4-2.6,1l0,0l-56,48.4c-1.7,1.5-1.9,4-0.4,5.7c1.5,1.7,4,1.9,5.7,0.4c0,0,0,0,0,0
			l56-48.4c1.7-1.5,1.9-4,0.4-5.7c-0.7-0.8-1.7-1.3-2.8-1.4L234.9,58.8z"/>
		<path class="st0" d="M266,106.8l-15.4-2.2l-6.9-13.9c-0.8-1.6-2.7-2.2-4.3-1.5c-0.6,0.3-1.1,0.8-1.5,1.5l-6.9,13.9l-15.4,2.2
			c-1.2,0.2-2.2,1-2.6,2.2c-0.4,1.2-0.1,2.4,0.8,3.3l11.1,10.8l-2.6,15.3c-0.3,1.7,0.9,3.4,2.6,3.7c0.7,0.1,1.4,0,2-0.3l13.7-7.2
			l13.8,7.2c1.1,0.6,2.4,0.5,3.3-0.2c1-0.7,1.5-1.9,1.3-3.1l-2.6-15.3l11.1-10.8c1.3-1.2,1.3-3.3,0.1-4.5
			C267.3,107.1,266.7,106.8,266,106.8L266,106.8z M251,119.6c-0.8,0.7-1.1,1.8-0.9,2.8l1.8,10.6l-9.5-5c-0.9-0.5-2.1-0.5-3,0l-9.5,5
			l1.8-10.6c0.2-1-0.2-2.1-0.9-2.8l-7.7-7.5l10.6-1.5c1-0.2,1.9-0.8,2.4-1.8l4.8-9.6l4.8,9.6c0.5,0.9,1.4,1.6,2.4,1.7l10.6,1.5
			L251,119.6z"/>
		<path class="st0" d="M75.4,17.9l-15.4-2.2L53.2,1.8c-0.8-1.6-2.7-2.2-4.3-1.5c-0.6,0.3-1.1,0.8-1.5,1.5l-6.9,13.9l-15.4,2.2
			c-1.7,0.3-3,1.9-2.7,3.6c0.1,0.7,0.4,1.3,0.9,1.8l11.1,10.8L32,49.5c-0.3,1.7,0.9,3.4,2.6,3.7c0.7,0.1,1.4,0,2-0.3l13.8-7.2
			l13.7,7.2c1.1,0.6,2.4,0.5,3.3-0.2c1-0.7,1.5-1.9,1.3-3.1l-2.6-15.3l11.1-10.8c1.3-1.2,1.3-3.3,0.1-4.5
			C76.8,18.4,76.1,18,75.4,17.9z M60.4,30.8c-0.8,0.7-1.1,1.8-0.9,2.8l1.8,10.6l-9.5-5c-0.9-0.5-2.1-0.5-3,0l-9.5,5l1.8-10.6
			c0.2-1-0.2-2.1-0.9-2.8l-7.7-7.5l10.6-1.5c1.1-0.1,2-0.8,2.4-1.8l4.8-9.6l4.8,9.6c0.5,0.9,1.4,1.6,2.4,1.7l10.6,1.5L60.4,30.8z"/>
		<path class="st0" d="M1.2,247.8c-2.9,6.6,0,14.2,6.6,17.2c3.3,1.5,7.2,1.5,10.5,0l167.9-73.3l0.3-0.1c1.9-0.3,3.7-1.2,5.1-2.6
			c2.9-2.9,3.6-7.4,2-13.4c-0.8-3-4.5-11.3-6.5-15.2c-2.7,0.6-5.3,1.5-7.8,2.5c2.6,4.7,4.7,9.7,6.5,14.8c0.3,1.1,0.5,2.2,0.6,3.3
			l0.1,1.7l-2.2,1h-0.6c-1.1-0.1-2.2-0.3-3.2-0.6c-2.7-0.7-7.5-2.5-14.8-7c-6.9-4.2-13.4-9-19.7-14.1c-7.6-6.2-14.9-12.8-21.9-19.8
			c-7-6.9-13.6-14.2-19.8-21.9c-5.1-6.2-9.8-12.8-14.1-19.7c-4.4-7.3-6.2-12.1-7-14.8c-0.3-1.1-0.5-2.2-0.5-3.3v-0.6l1-2.2l1.7,0.1
			c1.1,0.1,2.2,0.3,3.3,0.6c2.7,0.7,7.5,2.5,14.8,6.9c0.4,0.2,0.8,0.5,1.2,0.8c1.4,0.9,2.7,1.7,4,2.6l1.8,1.3l-1,2
			c-0.9,1.7-2,3.4-3.2,5c-0.6,0.7-0.9,1.7-0.9,2.6c0,2.2,1.8,4.1,4.1,4c0.2,0,0.4,0,0.6,0c1.1-0.2,2.1-0.8,2.7-1.7
			c2.4-3.2,4.3-6.7,5.9-10.3l0.1-0.2c0-0.1,0.1-0.2,0.1-0.3c0.4-0.9,0.7-1.7,0.9-2.4c0.1-0.2,0.1-0.4,0.2-0.6l0.1-0.4
			c0.2-0.5,0.3-1,0.5-1.5l0.2-0.8c2.7-9.9,2.8-20.4,0.3-30.4c-3.7-14.4-11.9-25.9-22.2-30.7c-1-0.5-2.1-0.5-3.1-0.1
			c-2.1,0.8-3.2,3.1-2.4,5.2c0.1,0.2,0.1,0.4,0.2,0.5c0.5,0.8,1.2,1.5,2.1,1.9c7.9,3.8,14.5,13.4,17.5,25.1c1.8,7,2.1,14.3,0.9,21.4
			l-0.6,3.5l-3.3-1.9l-2.5-1.6c-6.5-4-12.2-6.6-16.9-7.9c-1.9-0.5-3.8-0.8-5.8-0.8c-2.8-0.1-5.6,0.9-7.6,2.8
			c-1.4,1.4-2.3,3.1-2.6,5.1l-0.1,0.3l-0.1,0.3L9,230.4L1.2,247.8z M34.2,218.7c-3.1-3.1-5.3-7.1-6.3-11.4l20.5-47.1
			c2,5.8,8.3,14,11.5,17.2c12,12.1,33.2,28,74.6,28l-56.7,24.7C52.7,230.6,40.4,225.1,34.2,218.7z M23,218.5c1,2.5,2.5,4.8,4.5,6.7
			c8.5,8.3,19.8,12.9,31.7,13l3.2-1.4l-45.7,19.9c-2.8,1.2-6-0.1-7.2-2.8c-0.6-1.4-0.6-3,0-4.4L23,218.5z M151,198.2l1.1-0.5
			c-43.9,1.2-69.4-10.7-85.6-26.9c-4.7-4.7-11.1-13.5-13.1-22.1l23.8-54.4l2.4,4.7c1,2,2.2,4.1,3.4,6.1c4.4,7.2,9.4,14.1,14.7,20.6
			c6.4,7.8,13.2,15.3,20.4,22.5c7.1,7.2,14.7,14,22.5,20.4c6.5,5.4,13.4,10.3,20.6,14.7c2,1.2,4.1,2.4,6.1,3.4l4.7,2.4L151,198.2z"
			/>
		<path class="st0" d="M217,6.8c-9.5,0-17.3,7.7-17.3,17.3s7.7,17.3,17.3,17.3c9.5,0,17.3-7.7,17.3-17.3
			C234.3,14.5,226.5,6.8,217,6.8z M217,35c-6,0-10.9-4.9-10.9-10.9S211,13.2,217,13.2c6,0,10.9,4.9,10.9,10.9c0,0,0,0,0,0
			C227.9,30.1,223,35,217,35z"/>
		<path class="st0" d="M151.1,20.9c-8.4,0-15.2,6.8-15.2,15.2s6.8,15.2,15.2,15.2s15.2-6.8,15.2-15.2
			C166.3,27.7,159.5,20.9,151.1,20.9z M151.1,44.9c-4.9,0-8.8-4-8.8-8.9s4-8.8,8.9-8.8c4.9,0,8.8,4,8.8,8.8
			C160,41,156,44.9,151.1,44.9z"/>
		<path class="st0" d="M231.1,198.9c-8.4,0-15.2,6.8-15.2,15.2s6.8,15.2,15.2,15.2s15.2-6.8,15.2-15.2c0,0,0,0,0,0
			C246.3,205.7,239.5,198.9,231.1,198.9z M231.1,222.9c-4.9,0-8.8-4-8.8-8.8s4-8.8,8.8-8.8c4.9,0,8.8,4,8.8,8.8
			C239.9,218.9,236,222.9,231.1,222.9C231.1,222.9,231.1,222.9,231.1,222.9L231.1,222.9z"/>
	</g>
</g>
</svg>
