<svg xmlns="http://www.w3.org/2000/svg" viewBox="0 0 59.75 62.03"><defs><style>.cls-1{fill:#444;}</style></defs><g id="Layer_2" data-name="Layer 2"><g id="Layer_1-2" data-name="Layer 1"><path class="cls-1" d="M59.45,8.09a5.26,5.26,0,0,0-3-2.92,71.18,71.18,0,0,0-53.25,0A5.26,5.26,0,0,0,.3,8.09a4.2,4.2,0,0,0,.09,3.34l.21.45a4.67,4.67,0,0,0,4.28,2.6h.26l8.29,16.28V50.31a4.41,4.41,0,1,0,8.81,0V48.58l7,13a.81.81,0,0,0,1.43,0L41.75,40.37l.1.26a4.39,4.39,0,0,0,8.53-1.54l0-15.27,4.9-9.38h.07a4.64,4.64,0,0,0,3.77-2.56l.2-.43A4.19,4.19,0,0,0,59.45,8.09ZM45.27,31.9a.76.76,0,0,0,.61.05.81.81,0,0,0,.48-.39L48.76,27V39.09a2.79,2.79,0,1,1-5.58,0l0-1.76a.53.53,0,0,0,0-.17.3.3,0,0,0-.06-.11l0,0a.52.52,0,0,0-.08-.11.47.47,0,0,0-.1-.09l-.08-.06,0,0-.14,0-.09,0-.11,0h-.08l-.07,0-.16,0-.14.08-.13.08-.09.11a.28.28,0,0,1-.06.08L29.93,59.48l-7.86-14.6-.1-.12a.43.43,0,0,0-.13-.09.88.88,0,0,0-.13-.07.4.4,0,0,0-.15,0l-.08,0h-.05l-.15,0-.07,0a.34.34,0,0,0-.12,0l-.07,0-.06,0a.69.69,0,0,0-.12.1.52.52,0,0,0-.08.11l0,0a.69.69,0,0,0-.06.13l0,.15a.19.19,0,0,1,0,.08v5a2.79,2.79,0,1,1-5.58,0V33.85l2,4a.87.87,0,0,0,.48.4.85.85,0,0,0,.61,0,.82.82,0,0,0,.35-1.1l-11.74-23,.13,0a61.73,61.73,0,0,1,46.07,0h0l.24.08.31.09-8.63,16.5A.82.82,0,0,0,45.27,31.9ZM57.9,10.73l-.21.43a3,3,0,0,1-2.81,1.68,3.47,3.47,0,0,1-1.31-.25,63.33,63.33,0,0,0-47.39,0,3.24,3.24,0,0,1-4.12-1.42l-.21-.45a2.55,2.55,0,0,1,0-2,3.59,3.59,0,0,1,2-2,69.52,69.52,0,0,1,52.05,0,3.56,3.56,0,0,1,2,2A2.58,2.58,0,0,1,57.9,10.73Z"/><path class="cls-1" d="M21.52,12.67a5.57,5.57,0,1,0,5.57,5.57A5.58,5.58,0,0,0,21.52,12.67Zm0,9.46a3.89,3.89,0,1,1,3.89-3.89A3.89,3.89,0,0,1,21.52,22.13Z"/><path class="cls-1" d="M46,20.05a.81.81,0,0,0,.8-.81,4.06,4.06,0,1,0-4.05,4.05.8.8,0,0,0,0-1.6,2.45,2.45,0,1,1,2.44-2.45A.81.81,0,0,0,46,20.05Z"/><path class="cls-1" d="M30.64,36.46a.8.8,0,1,0,0,1.6,2.45,2.45,0,1,1-2.45,2.45.81.81,0,0,0-1.61,0,4.06,4.06,0,1,0,4.06-4Z"/><path class="cls-1" d="M30.64,31.65a3.3,3.3,0,1,0-3.3-3.29A3.3,3.3,0,0,0,30.64,31.65Zm0-5a1.75,1.75,0,1,1-1.75,1.75A1.74,1.74,0,0,1,30.64,26.61Z"/><path class="cls-1" d="M34.43,15.19a1,1,0,0,0,0,2,1,1,0,1,0,0-2Z"/><path class="cls-1" d="M39,30.38a1,1,0,1,0,1,1A1,1,0,0,0,39,30.38Z"/><circle class="cls-1" cx="22.28" cy="32.95" r="1.01"/><path class="cls-1" d="M31,47.85a1.4,1.4,0,1,0,1.4,1.39A1.39,1.39,0,0,0,31,47.85Zm0,1.79a.4.4,0,1,1,.4-.4A.4.4,0,0,1,31,49.64Z"/><path class="cls-1" d="M11.65,15.19a1,1,0,1,0,1,1A1,1,0,0,0,11.65,15.19Z"/></g></g></svg>