<svg xmlns="http://www.w3.org/2000/svg" viewBox="0 0 43.77 46.22"><defs><style>.cls-1{fill:#444;stroke:#444;stroke-width:0.2px;}</style></defs><g id="Layer_2" data-name="Layer 2"><g id="Layer_1-2" data-name="Layer 1"><g id="Vidaloop"><g id="Careers_Desktop" data-name="Careers Desktop"><g id="Group-4"><g id="Group-3"><g id="Group-19-Copy-6"><g id="Asset-1"><path id="Path" class="cls-1" d="M3.18,21a.7.7,0,0,1-.48-.18c-1.83-1.63-1.5-4.09-.9-5.87a21.65,21.65,0,0,1,2.33-4.53c.1-.14.18-.27.22-.34A6.45,6.45,0,0,1,9.92,6.85a7,7,0,0,1,4.62,1.62,8.94,8.94,0,0,1,2.72,4.86.71.71,0,0,1-.2.68.73.73,0,0,1-.7.17.72.72,0,0,1-.49-.52A7.5,7.5,0,0,0,13.6,9.55,5.48,5.48,0,0,0,9.92,8.27a5,5,0,0,0-4.33,2.48l-.25.4a19.86,19.86,0,0,0-2.18,4.21c-.67,2-.51,3.46.5,4.36A.72.72,0,0,1,3.18,21Z"/><path id="Path-2" data-name="Path" class="cls-1" d="M5.62,43.05a.7.7,0,0,1-.7-.69,19,19,0,0,0-1.74-7.18,21.76,21.76,0,0,1-1.81-7.6c-.29-4.52.83-6.48,1.53-7.24a13.74,13.74,0,0,0,2.77-5.13,2,2,0,0,1,1-1.25,4.57,4.57,0,0,1,4,0,1.85,1.85,0,0,1,1,1.46,5.06,5.06,0,0,0,.08.52,4.44,4.44,0,0,0,.57,1.39,4.54,4.54,0,0,0,6,1.73,3.59,3.59,0,0,0,1.67-2.3,5.07,5.07,0,0,0-.71-3.86.72.72,0,0,1-.06-.72.7.7,0,0,1,.61-.4.71.71,0,0,1,.63.34,6.56,6.56,0,0,1,.9,5,4.89,4.89,0,0,1-2.34,3.19,5.49,5.49,0,0,1-4.43.44A6.21,6.21,0,0,1,11.2,18a6.15,6.15,0,0,1-.73-1.82c-.05-.22-.08-.44-.11-.67a.4.4,0,0,0-.22-.33,3.2,3.2,0,0,0-2.8,0,.66.66,0,0,0-.32.39,14.84,14.84,0,0,1-3.08,5.68c-.92,1-1.34,3.28-1.16,6.2a19.81,19.81,0,0,0,1.66,7,20.07,20.07,0,0,1,1.89,7.8.74.74,0,0,1-.2.51.69.69,0,0,1-.49.21Z"/><path id="Path-3" data-name="Path" class="cls-1" d="M42.23,46.12H37.62a2.25,2.25,0,0,1-.88-4.33L35.5,36A16.58,16.58,0,0,1,32,36.1l.1-1.41a14.86,14.86,0,0,0,3.8-.22l.7-.17.15.71,1.72,8h-.87a.82.82,0,0,0-.83.87.85.85,0,0,0,.87.8h4.61a0,0,0,0,0,0,0V27.54A12.48,12.48,0,0,0,31.47,15.16l-5.83-.5a1.27,1.27,0,0,1-1.14-1.18,7.39,7.39,0,0,0-2.31-5l1-1a8.89,8.89,0,0,1,2.74,5.8l5.74.5a13.87,13.87,0,0,1,12,13.77V44.68a1.44,1.44,0,0,1-1.44,1.44Z"/><path id="Path-4" data-name="Path" class="cls-1" d="M28.69,46.12H24.08a2.23,2.23,0,0,1-1-4.26l-2.06-5.51H19.86c-6.56,0-9.86,0-12.85-3.75a.7.7,0,0,1-.11-.71.7.7,0,0,1,1.22-.16C10.69,35,13.37,35,19.86,35h1.68a.71.71,0,0,1,.67.46l2.5,6.7a.71.71,0,0,1-.08.65.7.7,0,0,1-.58.3.82.82,0,0,0-.6.25.83.83,0,0,0,.64,1.41h4.6a.06.06,0,0,0,.06-.06V30.87a.71.71,0,0,1,1.42,0V44.66a1.49,1.49,0,0,1-1.48,1.46Z"/><path id="Path-5" data-name="Path" class="cls-1" d="M16.14,25.26a.74.74,0,0,1,0-1.48,8.56,8.56,0,0,0,5.12-1.58,4.54,4.54,0,0,0,2-3.57.7.7,0,1,1,1.4,0,6,6,0,0,1-2.59,4.77A9.84,9.84,0,0,1,16.14,25.26Z"/><path id="Path-6" data-name="Path" class="cls-1" d="M7.93,8.69H5.16a.7.7,0,0,1-.76-.61.7.7,0,0,1,.76-.62H7.93a.7.7,0,0,1,.76.62.7.7,0,0,1-.76.61Z"/><path id="Path-7" data-name="Path" class="cls-1" d="M16,8.69H12.44a.64.64,0,0,1-.68-.61.65.65,0,0,1,.68-.62H16a.66.66,0,0,1,.68.62.65.65,0,0,1-.68.61Z"/><path id="Path-8" data-name="Path" class="cls-1" d="M8.69,14.21a.67.67,0,0,1-.61-.72V7.57a.67.67,0,0,1,.61-.72.67.67,0,0,1,.61.72v5.92A.67.67,0,0,1,8.69,14.21Z"/><path id="Path-9" data-name="Path" class="cls-1" d="M9.06,22.19l-1,0C5.7,22,4.11,21.39,3.31,20.31a.75.75,0,0,1-.08-.74.72.72,0,0,1,1.25-.15c1.11,1.5,5.14,1.35,6.47,1.18a.74.74,0,0,1,.8.65.72.72,0,0,1-.62.82,17.7,17.7,0,0,1-2.07.12Z"/><path id="Shape" class="cls-1" d="M9.89,10.53H8.1A1.47,1.47,0,0,1,6.85,9,1.48,1.48,0,0,1,8.1,7.46H9.89A1.48,1.48,0,0,1,11.15,9a1.47,1.47,0,0,1-1.26,1.53Z"/><path id="Path-10" data-name="Path" class="cls-1" d="M2.22,17.28a.74.74,0,0,1-.5-.2A5.85,5.85,0,0,1,.54,15.39a4.43,4.43,0,0,1,.17-4.17A35,35,0,0,0,2.79,6.94L3,6.42c.05-.11.1-.24.15-.37a4.18,4.18,0,0,1,2.7-2.84.74.74,0,0,1,.73.13.72.72,0,0,1,.25.7.75.75,0,0,1-.5.55,2.72,2.72,0,0,0-1.8,2c-.06.15-.11.29-.17.43l-.21.5A35.93,35.93,0,0,1,2,11.93,3.48,3.48,0,0,0,2.73,16a.71.71,0,0,1,.18.79.74.74,0,0,1-.69.46Z"/><path id="Path-11" data-name="Path" class="cls-1" d="M2.21,9.92a.64.64,0,0,1-.38-.12C1.74,9.75-.25,8.43.15,6.38.47,4.75,1.73.76,1.79.6A.7.7,0,0,1,2.46.1H6.52A2.51,2.51,0,0,1,7.88.5L8.63,1a.79.79,0,0,0,.42.12h6.19a1,1,0,0,0,.64-.24L16,.76A2.53,2.53,0,0,1,17.71.1H22A1.33,1.33,0,0,1,23.25,1c.56,1.52,1.33,4.33.21,6.09-.68,1.07-1.07,1.71-1.28,2.06a1,1,0,0,1-.85.5,1,1,0,0,1-.87-.45L17.66,5a.72.72,0,0,1,.19-1,.7.7,0,0,1,1,.18l2.46,3.66,1-1.56c.66-1.05.27-3.15-.33-4.8H17.71a1.16,1.16,0,0,0-.77.3l-.12.11a2.37,2.37,0,0,1-1.58.61H9.05a2.19,2.19,0,0,1-1.19-.36L7.12,1.7a1.08,1.08,0,0,0-.6-.18H3c-.35,1.13-1.2,3.91-1.44,5.13s1,1.95,1.06,2a.71.71,0,0,1-.39,1.31Z"/><path id="Path-12" data-name="Path" class="cls-1" d="M10.3,46.12H5.52a2.3,2.3,0,0,1-2.35-2.19,2.24,2.24,0,0,1,.65-1.66,2.29,2.29,0,0,1,1.66-.7.72.72,0,1,1,0,1.43.85.85,0,0,0-.86.88.88.88,0,0,0,.9.81H10.3V37A.72.72,0,0,1,11,36.3a.73.73,0,0,1,.73.72v7.67A1.44,1.44,0,0,1,10.3,46.12Z"/><path id="Path-13" data-name="Path" class="cls-1" d="M20.24,46.12H19a2.28,2.28,0,0,1-2.27-1.86,2.2,2.2,0,0,1,1.55-2.45V38.23a.71.71,0,0,1,.72-.7.72.72,0,0,1,.73.7v4.16a.72.72,0,0,1-.73.7.82.82,0,1,0,0,1.64h1.27a.7.7,0,1,1,0,1.39Z"/></g></g></g></g></g></g></g></g></svg>