<svg xmlns="http://www.w3.org/2000/svg" viewBox="0 0 59.44 48.47"><defs><style>.cls-1{fill:#444;}</style></defs><g id="Layer_2" data-name="Layer 2"><g id="Layer_1-2" data-name="Layer 1"><path class="cls-1" d="M12.76,38.9a2.79,2.79,0,1,0,2.8,2.79A2.8,2.8,0,0,0,12.76,38.9Zm0,4a1.2,1.2,0,1,1,1.2-1.2A1.19,1.19,0,0,1,12.76,42.89Z"/><rect class="cls-1" x="36.9" y="26.93" width="1.99" height="1.99" rx="0.99"/><path class="cls-1" d="M53.4,42.49h3.25a2.79,2.79,0,0,0,.93-5.42l-.14,0V26.52A2.79,2.79,0,0,0,55,23.74L48.15,23l-5.46-9.1,2.55-2.56a.8.8,0,0,0,.24-.56v-6a.8.8,0,0,0-.8-.8h-2.2V2.79A2.79,2.79,0,0,0,39.69,0H7.78A2.79,2.79,0,0,0,5,2.79V4H2.79a.8.8,0,0,0-.8.8V37l-.13,0a2.79,2.79,0,0,0,.93,5.42H6l0,.17a6.77,6.77,0,0,0,13.41,0l0-.17h2.45v3.19a.79.79,0,0,0,.8.79h11a.79.79,0,0,0,.8-.79V42.49H40l0,.17a6.77,6.77,0,0,0,13.41,0Zm.06-17.31,1.33.15a1.2,1.2,0,0,1,1.06,1.19v1.41H53.46ZM51.86,25v3.72a.8.8,0,0,0,.8.8h3.19V36.9H51.47l-.06-.06a6.8,6.8,0,0,0-9.47,0l-.06.06H34.51V14.56h6.73L42.67,17h-5a.8.8,0,0,0-.8.8v6a.79.79,0,0,0,.8.79h9.91Zm-8.23-6.45,2.63,4.39H38.5V18.55Zm-5.13-17h1.19a1.2,1.2,0,0,1,1.2,1.2V4H38.5Zm-4,0H36.9V4H34.51Zm-4,0h2.39V4H30.52Zm-4,0h2.39V4H26.53Zm-4,0h2.39V4H22.54Zm-4,0h2.39V4H18.55Zm-4,0H17V4H14.56Zm-4,0H13V4H10.57Zm-4,1.2a1.2,1.2,0,0,1,1.2-1.2H9V4H6.58Zm.07,36a6.7,6.7,0,0,0-.59,1.94l0,.17H2.79a1.2,1.2,0,1,1,0-2.39h4Zm6.12,8.1h0A5.19,5.19,0,1,1,18,41.69,5.19,5.19,0,0,1,12.76,46.88Zm9.17-6H19.49l0-.17a6.92,6.92,0,0,0-.59-1.94l-.13-.28h3.19Zm11,4H23.54V42.49h9.37Zm0-4H23.54V38.5h9.37Zm0-4H23.54V27.53h1.19a.8.8,0,0,0,.8-.8h0a.8.8,0,0,0-.8-.8H23.54V14.56h9.37ZM22.74,13a.79.79,0,0,0-.8.79V36.9H17.56l-.06-.06a6.8,6.8,0,0,0-9.47,0L8,36.9H3.59V5.58H43.88v4.86L41.36,13ZM40.56,38.78A6.6,6.6,0,0,0,40,40.72l0,.17H34.51V38.5h6.18Zm6.11,8.1h0a5.19,5.19,0,1,1,5.19-5.19A5.19,5.19,0,0,1,46.67,46.88Zm6-8.38h4a1.2,1.2,0,1,1,0,2.39H53.4l0-.17a7,7,0,0,0-.59-1.94Z"/><path class="cls-1" d="M18.75,13h-12a.79.79,0,0,0-.8.79v8a.8.8,0,0,0,.8.8h12a.8.8,0,0,0,.8-.8v-8A.79.79,0,0,0,18.75,13Zm-.8,8H7.58V18.55H18Zm0-4H7.58V14.56H18Z"/><rect class="cls-1" x="5.98" y="7.98" width="35.5" height="1.59" rx="0.8"/></g></g></svg>