<svg xmlns="http://www.w3.org/2000/svg" viewBox="0 0 2525.07 671.44"><defs><style>.cls-1{fill:#444;}.cls-2{fill:#0085ff;}</style></defs><g id="Layer_2" data-name="Layer 2"><g id="Layer_1-2" data-name="Layer 1"><path id="Path" class="cls-1" d="M93.44,184.33l58.49,151.21,58.49-151.21q12.12-31.4,43.51-31.39a50.46,50.46,0,0,1,34.95,13.55q15,13.56,15,33.53a51.46,51.46,0,0,1-3.56,18.54L196.87,486q-15,38.52-44.94,38.52T107,486L3.57,218.56A51.27,51.27,0,0,1,0,200q0-20,15-33.53a50.48,50.48,0,0,1,35-13.55q31.38,0,43.51,31.39Z"/><path id="Shape" class="cls-1" d="M428,475.64q0,21.9-13.87,35.78-13.87,13.14-35.77,13.14t-35.78-13.14q-13.14-13.87-13.14-35.78V201.86q0-21.9,13.14-35.05Q356.5,153,378.4,152.94q49.64,0,49.64,48.92ZM379.44,0q-24.29,0-42.16,17.87a56.44,56.44,0,0,0-17.15,41.45q0,24.3,17.15,42.16,17.87,17.16,42.16,17.16a56.49,56.49,0,0,0,41.46-17.16q17.87-17.87,17.86-42.16T420.9,17.87Q403.74,0,379.44,0Z"/><path id="Path-2" data-name="Path" class="cls-1" d="M645.9,251.94q-36.25,0-61.63,26.1-25.38,25.38-25.37,61.63t25.37,61.63q25.38,25.38,61.63,25.38t61.63-25.38q26.1-25.38,26.11-61.63V49.44q0-21,13.77-34.8T782.21.87q21.76,0,35.53,13.77,13.78,13,13.78,34.8V339.67q0,77.58-54.38,131.23-53.65,53.66-131.23,53.66T514.67,470.9Q461,417.25,461,339.67q0-78.3,52.93-132,53.65-53.65,132-53.66,21.75,0,35.53,13.78t13.78,35.53q0,21.75-13.78,35.52-13.77,13.05-35.53,13.06Z"/><path id="Path-3" data-name="Path" class="cls-1" d="M1051.81,524.56q-78.48,0-132.26-53.78-53.06-53.77-53-132.27t53-131.53q53.78-53.78,132.26-53.78T1184.08,207q53.78,53.05,53.78,131.53v135.9q0,21.81-13.81,35.61-13.82,13.08-35.61,13.08T1152.83,510q-13.08-13.8-13.08-35.61V338.51q0-36.33-26.16-61.77-25.44-25.42-61.77-25.43T990,276.74q-25.42,25.44-25.43,61.77T990,401q25.44,25.44,61.78,25.44,21.79,0,35.61,13.8,13.8,13.1,13.8,34.89t-13.8,35.61q-13.82,13.8-35.61,13.8Z"/><path id="Path-4" data-name="Path" class="cls-2" d="M1456.83,524.56h-31.44q-65.75,0-110.06-44.31T1271,370.19v-321q0-21.43,12.86-34.3,13.59-13.57,35-13.58t35,13.58q13.57,12.86,13.58,34.3v321q0,24.3,16.44,41.45,17.14,16.44,41.45,16.44h31.44q21.45,0,34.31,13.58,13.58,13.57,13.58,35t-13.58,35q-12.87,12.87-34.31,12.87Z"/><path id="Path-5" data-name="Path" class="cls-2" d="M2339.16,426q36.32,0,61.73-25.42Q2427,374.42,2427,338.12t-26.14-61.73Q2375.47,251,2339.16,251t-61.73,25.41Q2252,301.81,2252,338.12V622.06q0,21.8-13.8,35.59t-35.58,13.79q-21.79,0-35.59-13.79Q2154,643.85,2154,622.06V338.12q0-78.44,53-131.44,53.75-53.73,132.17-53.74t132.17,53.74q53.74,53,53.74,131.44t-53.74,132.17Q2417.6,524,2339.16,524q-21.78,0-35.58-13.8-13.08-13.8-13.07-35.59t13.07-34.85q13.8-13.8,35.58-13.8Z"/><path class="cls-2" d="M2116.05,393.8c.3-1.08.6-2.16.89-3.25.24-.93.49-1.87.72-2.81.27-1.09.54-2.19.79-3.29.22-.94.44-1.88.64-2.82q.36-1.67.69-3.33c.19-.95.38-1.89.55-2.84.21-1.12.4-2.25.59-3.37.16-.94.32-1.89.47-2.83.18-1.15.33-2.29.49-3.44.13-.93.26-1.87.38-2.8.14-1.17.26-2.34.39-3.51.1-.92.2-1.84.29-2.76.11-1.2.2-2.41.29-3.61.06-.89.14-1.79.2-2.68.08-1.26.13-2.53.18-3.79,0-.84.09-1.67.12-2.51,0-1.39.06-2.78.08-4.18,0-.71,0-1.42,0-2.13,0-1.94,0-3.89-.07-5.83,0-.16,0-.32,0-.48q-.09-3.15-.27-6.3c0-.66-.1-1.32-.14-2-.1-1.44-.2-2.88-.32-4.32-.08-.82-.17-1.63-.26-2.45-.12-1.27-.25-2.54-.4-3.81-.11-.88-.23-1.75-.35-2.63-.16-1.2-.32-2.41-.5-3.61-.14-.9-.3-1.81-.45-2.71-.19-1.17-.38-2.33-.59-3.49-.17-.92-.36-1.84-.54-2.75-.23-1.14-.45-2.27-.7-3.4-.2-.93-.42-1.85-.63-2.78-.26-1.11-.52-2.22-.8-3.33-.23-.93-.48-1.85-.73-2.77-.29-1.1-.59-2.19-.9-3.28-.26-.92-.54-1.84-.82-2.76-.32-1.08-.65-2.16-1-3.23-.29-.91-.6-1.83-.91-2.74s-.73-2.12-1.11-3.17-.66-1.81-1-2.71-.8-2.09-1.22-3.13q-.52-1.33-1.08-2.67c-.43-1-.88-2.06-1.33-3.09-.39-.87-.77-1.75-1.17-2.62s-1-2-1.45-3-.83-1.72-1.25-2.57c-.51-1-1-2-1.57-3s-.88-1.67-1.33-2.5c-.55-1-1.12-2-1.69-3-.47-.81-.93-1.62-1.41-2.42-.59-1-1.21-2-1.83-3-.48-.77-1-1.55-1.46-2.32-.65-1-1.33-2-2-3-.5-.73-1-1.46-1.5-2.18-.72-1-1.47-2-2.22-3-.49-.66-1-1.33-1.47-2-.85-1.11-1.73-2.18-2.6-3.26-.44-.54-.86-1.09-1.3-1.62q-2-2.4-4.1-4.72-1.53-1.84-3.12-3.63c-.34-.39-.69-.76-1-1.14-.72-.8-1.44-1.61-2.17-2.39-.44-.47-.9-.93-1.34-1.39-.65-.69-1.3-1.37-2-2-.5-.51-1-1-1.53-1.51s-1.23-1.22-1.86-1.82-1.09-1-1.63-1.52-1.22-1.15-1.85-1.71-1.14-1-1.71-1.51-1.23-1.09-1.85-1.62-1.19-1-1.79-1.5l-1.85-1.52c-.61-.5-1.24-1-1.87-1.48s-1.22-1-1.84-1.44-1.29-1-1.94-1.44l-1.85-1.37c-.66-.48-1.32-.94-2-1.4s-1.24-.88-1.87-1.31l-2-1.36-1.89-1.24-2.08-1.3-1.91-1.19-2.13-1.25-1.92-1.12c-.72-.41-1.44-.8-2.17-1.2s-1.29-.72-2-1.07-1.46-.76-2.2-1.14l-2-1c-.74-.37-1.48-.72-2.23-1.08s-1.32-.65-2-1l-2.25-1c-.67-.3-1.35-.61-2-.9s-1.5-.64-2.26-1l-2.06-.86-2.28-.88c-.69-.27-1.39-.55-2.09-.81l-2.29-.82-2.12-.74-2.3-.76c-.72-.23-1.43-.47-2.15-.69l-2.31-.69-2.18-.64c-.77-.22-1.54-.42-2.31-.62s-1.47-.4-2.21-.58-1.54-.38-2.31-.56-1.49-.36-2.24-.52l-2.31-.49-2.27-.47-2.31-.42c-.76-.14-1.53-.28-2.29-.4l-2.3-.36-2.33-.34-2.3-.29-2.34-.28-2.3-.23-2.35-.21-2.3-.16-2.37-.14-2.3-.1-2.38-.08-2.3,0c-1.11,0-2.22,0-3.34,0h0c-1.14,0-2.27,0-3.41,0h-1.51l-2,0-1.53,0c-.67,0-1.33,0-2,.06l-1.57.08-2,.1-1.57.1-2,.14-1.58.14-1.94.17-1.59.17-1.92.21-1.59.2-1.92.26-1.58.23-1.92.29-1.58.26-1.9.32-1.59.3-1.88.36-1.58.33-1.88.4-1.58.36-1.87.44-1.57.39c-.62.16-1.24.31-1.85.48s-1,.28-1.57.42l-1.85.51-1.55.46-1.84.55-1.55.49-1.82.59-1.54.52c-.6.2-1.21.41-1.81.63l-1.53.54-1.79.67-1.52.58-1.78.71-1.51.61-1.76.75-1.5.64-1.75.79-1.48.67-1.74.83-1.46.7-1.73.87-1.44.73-1.72.91-1.42.77-1.71.95-1.39.79-1.71,1-1.36.81-1.71,1.06-1.31.82-1.73,1.13-1.27.83-1.76,1.21-1.18.82c-.66.46-1.31.93-2,1.4l-1,.69c-1,.71-1.92,1.44-2.87,2.17-2.82,2.1-5.59,4.29-8.28,6.57a178.69,178.69,0,0,0-30.9,33.87,208.93,208.93,0,0,0-26.82,54.83q-2.66,8.64-4.46,17.55a174.11,174.11,0,0,0-3.26,27.1c0,.57-.07,1.14-.1,1.71h0a33.66,33.66,0,0,0,0,3.48c0,.13,0,.25,0,.38.07,1.44.09,2.88.08,4.34,0,.72,0,1.45,0,2.18,0,2.06,0,4.12-.13,6.16,0,.73-.09,1.45-.15,2.17,0,.11,0,.23,0,.34-.24,2.67-.63,5.31-1.13,7.92,0,.2-.06.39-.1.59q-.77,3.81-1.88,7.53c-.08.24-.14.49-.22.74-.74,2.42-1.6,4.8-2.56,7.14-.11.28-.22.57-.34.85-1,2.3-2,4.55-3.19,6.75-.15.3-.3.6-.46.9q-1.76,3.25-3.77,6.35c-.09.15-.19.3-.29.45s-.19.3-.29.45c-.68,1-1.37,2-2.09,3s-1.45,2-2.21,2.92l-.68.87q-2.3,2.84-4.8,5.49l-.76.79c-1.69,1.75-3.45,3.42-5.26,5l-.82.71q-2.77,2.37-5.71,4.52l-.41.29-.42.3c-.28.2-.58.39-.87.58-1.21.82-2.42,1.65-3.67,2.41-.53.32-1.05.67-1.58,1l-.44.25-.38.22c-2.13,1.22-4.3,2.36-6.53,3.38-.24.12-.5.22-.75.34-1.13.51-2.28,1-3.43,1.45s-2.32.9-3.49,1.3l-.62.2c-2.41.8-4.85,1.49-7.32,2.05l-.44.08-1.92.4c-.64.12-1.28.24-1.92.34-1.29.22-2.59.4-3.89.54H1690c-1.16.12-2.33.21-3.5.28l-.29,0c-1.12,0-2.24.08-3.37.09h-1.07c-1.43,0-2.87-.07-4.31-.17h-.58a34.68,34.68,0,0,1-3.92-.24c-42.6-2.59-78.36-44.05-76.46-88.34-1.23-46.63,39.87-88.48,84.77-86.34,32.7-.72,63,21.42,76.44,51.54.28-1.6.57-3.2.89-4.79,1.25-6.2,2.83-12.44,4.71-18.53a193,193,0,0,1,10.36-26.49,195.65,195.65,0,0,1,17.82-31.13,191.7,191.7,0,0,1,13.87-17.5c-32.6-32.87-77.61-51.66-123.18-51.11-38.16-.68-76.66,10.62-107.41,34.46-42.3,31.43-70.08,82.81-72.3,136.91-4.17,53.44,13.61,108.83,51,146.4,35.7,38.39,88.31,56.72,139.19,52.89h0q3.87-.13,7.72-.48c2.18-.19,4.36-.42,6.52-.71q6.09-.79,12.09-2.07c1.85-.39,3.68-.81,5.51-1.27,3-.76,6-1.6,9-2.54q5.78-1.8,11.4-4l2.34-.94a178,178,0,0,0,46.33-28.15c1.9-1.59,3.78-3.23,5.62-4.9.92-.83,1.83-1.68,2.73-2.53,1.36-1.29,2.69-2.6,4-3.92q3.3-3.31,6.43-6.78c.83-.93,1.66-1.87,2.48-2.81q4.89-5.67,9.34-11.74,1.76-2.42,3.44-4.89,4.68-6.84,8.73-14.1c1-1.76,1.92-3.53,2.84-5.32s1.81-3.6,2.67-5.43l0,0,0-.06h0l.19-.4L1843,419c.45-.93.88-1.87,1.31-2.81l.59-1.29c.43-.95.85-1.9,1.27-2.86q.75-1.75,1.47-3.54c.48-1.18.94-2.37,1.39-3.57,1.12-3.08,2.14-6.19,3.11-9.33q1.83-6,3.31-12.11,1.3-5.46,2.3-11c.23-1.23.44-2.46.64-3.7q.6-3.7,1.07-7.44c.16-1.24.31-2.49.44-3.73q.46-4.28.75-8.56c.09-1.34.09-3.55,0-4.89h0c0-.83-.07-1.66-.09-2.5,0-1.56,0-3.14.06-4.71q-.09-3.33.11-6.61c0-.67.09-1.33.14-2,0-.48.11-1,.19-1.43s.15-1,.2-1.43.12-.93.17-1.4c.17-1.39.35-2.79.61-4.16.22-1.14.56-2.25.83-3.37.38-1.62.73-3.25,1.21-4.84.35-1.17.82-2.31,1.23-3.46.26-.75.51-1.5.77-2.24s.54-1.49.84-2.22c.49-1.17,1.07-2.3,1.61-3.45.33-.69.64-1.39,1-2.08s.65-1.39,1-2.06c.24-.45.5-.89.76-1.33.4-.67.81-1.34,1.21-2,.53-.89,1-1.79,1.59-2.67.24-.4.48-.8.74-1.18.36-.55.74-1.08,1.12-1.61l1.17-1.58c.87-1.2,1.71-2.42,2.64-3.57.41-.52.84-1,1.28-1.5s.88-1,1.31-1.48c1-1.1,1.91-2.23,2.93-3.28s1.9-1.83,2.86-2.73,2.1-2,3.2-3l.42-.35c.69-.54,1.36-1.09,2.06-1.63,1.35-1,2.67-2.13,4.06-3.11.54-.38,1.08-.74,1.64-1.1s1.11-.69,1.66-1c1.21-.77,2.41-1.56,3.66-2.27s2.31-1.22,3.48-1.82,2.54-1.31,3.85-1.88,2.42-1,3.64-1.45,2.65-1,4-1.47,2.51-.72,3.77-1.06c.69-.18,1.37-.37,2.06-.54s1.38-.34,2.08-.49c1.28-.26,2.58-.44,3.87-.64l2.11-.31c.71-.09,1.42-.18,2.13-.24,1.31-.12,2.63-.15,4-.2.6,0,1.2-.06,1.79-.1.36,0,.72,0,1.08,0h.11c.88,0,1.76,0,2.65.07h2.1c.87,0,1.63.14,2.47.18h0c1.15,0,2.31.14,3.46.24l.34,0c1.1.1,2.19.24,3.27.39l.5.07c1.06.16,2.11.34,3.16.55l.54.1c1,.21,2.09.45,3.12.7l.5.13c1,.26,2.1.55,3.14.86l.37.12q1.71.51,3.39,1.11l.15,0a4,4,0,0,1,2.48.88,2.65,2.65,0,0,0,.75.38c1,.42,2,.86,3,1.32l.43.19c1,.46,1.94.93,2.9,1.42l.48.25q1.43.73,2.82,1.53l.46.27q1.41.81,2.79,1.68l.37.24c1,.6,1.88,1.22,2.81,1.86a1.72,1.72,0,0,0,.71.37,3.42,3.42,0,0,1,2,1.54,1.56,1.56,0,0,0,.39.34c.9.69,1.79,1.39,2.66,2.11l.34.27c.84.7,1.66,1.42,2.48,2.15l.4.35c.8.73,1.59,1.47,2.36,2.23.14.12.27.25.4.38.77.76,1.54,1.54,2.29,2.33l.32.36c.77.81,1.52,1.64,2.26,2.49.07.08.13.16.2.23.75.88,1.5,1.77,2.22,2.68l0,.06c.72.91,1.43,1.83,2.11,2.77a3.55,3.55,0,0,1,.23.31c.66.89,1.29,1.81,1.91,2.73.1.14.2.28.29.43.61.9,1.19,1.82,1.76,2.75.1.16.2.32.29.48.57.93,1.12,1.88,1.65,2.83.08.15.16.3.25.45.53,1,1.06,2,1.56,3,.08.17.16.34.25.51.44.81,1,2.15,1.41,3l0,0c.48,1.07.93,2.15,1.36,3.24l.12.3c.41,1.05.8,2.11,1.17,3.17.06.16.11.31.16.47.36,1,.69,2.09,1,3.14,0,.18.1.36.16.54.3,1.05.59,2.11.85,3.18,0,.17.09.35.13.52.26,1.09.51,2.18.72,3.28,0,.13.06.27.08.41.24,1.21.45,2.44.63,3.67l0,.14a6.49,6.49,0,0,1,.39,3.14,1.88,1.88,0,0,0,0,.34s0,0,0,0a80.37,80.37,0,0,1,.33,10.66c1,47.64-41.71,90.38-87.66,87-32.19.14-61-22.28-73.88-52-.73,4.13-1.58,8.25-2.55,12.28a208,208,0,0,1-6.74,22.54l0,0,0,.05c-.92,2.46-1.94,5-3,7.55-1,2.34-2.11,4.77-3.28,7.23-.33.72-.66,1.43-1,2.14l0,.09-.25.61-.14.2c-1.7,3.56-3.53,7.11-5.45,10.56a193.24,193.24,0,0,1-25.54,35.64c35.65,36.95,87.24,54.56,137.18,50.8,67.75-2.41,130.47-50.69,154.86-115.87,1.3-3.55,2.47-7.16,3.55-10.79C2115.51,395.66,2115.78,394.73,2116.05,393.8Z"/></g></g></svg>