<?xml version="1.0" encoding="utf-8"?>
<!-- Generator: Adobe Illustrator 24.3.1, SVG Export Plug-In . SVG Version: 6.00 Build 0)  -->
<svg version="1.1" id="Layer_1" xmlns="http://www.w3.org/2000/svg" xmlns:xlink="http://www.w3.org/1999/xlink" x="0px" y="0px"
	 viewBox="0 0 300 300" style="enable-background:new 0 0 300 300;" xml:space="preserve">
<style type="text/css">
	.st0{fill:#444444;}
</style>
<g>
	<path class="st0" d="M77.5,68c16.5,0,29.9-15,29.9-33.4S94,1.2,77.5,1.2s-29.8,15-29.8,33.4S61.1,68,77.5,68z M77.5,8.9
		c12.2,0,22.1,11.6,22.1,25.7s-9.9,25.6-22.1,25.6S55.4,48.6,55.4,34.6S65.3,8.9,77.5,8.9z"/>
	<path class="st0" d="M298.1,58.3L283,49.1c-0.9-0.6-2.1-0.7-3.1-0.4c-1.1,0.3-1.9,1.1-2.4,2.1l-36.8,80.7h-73c-1.6,0-3.1,1-3.7,2.6
		l-3.9,10.5h-5.5c3.4-6.7,0.6-14.9-6.2-18.3c-1.9-1-4.1-1.4-6.2-1.4h-41.8L97.2,90c-0.1-0.9-0.5-1.7-1.1-2.3
		c-3.3-3.4-7.1-6.2-11.4-8.3c-3.6-1.9-7.5-3.2-11.6-3.6c-4.9-0.3-9.9,0.6-14.3,2.8c-1.3,0.6-2.2,2-2.2,3.5v125.2H34.1v-7
		c2.9-0.9,5.4-2.7,7.3-5c2.7-3.2,4-7.4,3.6-11.6L31.8,52.2c-0.9-8.8-8.7-15.2-17.5-14.3S-0.9,46.6,0,55.4l0,0l13.1,131.4
		c0.7,7.2,6.1,13,13.2,14.1v8.1c-4.7,2.5-7.7,7.3-7.7,12.6v1.7c0,8,6.5,14.4,14.4,14.4h41.9v14.6H36.3v19.7
		c-7.3,2.1-11.5,9.8-9.3,17.1c2.1,7.3,9.8,11.5,17.1,9.3c7.3-2.1,11.5-9.8,9.3-17.1c-1.3-4.5-4.8-8-9.3-9.3v-12h30.9v11.6
		c-7.4,1.8-11.9,9.2-10.2,16.6s9.2,11.9,16.6,10.2c7.4-1.8,11.9-9.2,10.2-16.6c-1.1-4.6-4.4-8.2-8.9-9.8V260h29.8v12
		c-7.3,2.1-11.5,9.8-9.3,17.1c2.1,7.3,9.8,11.5,17.1,9.3c7.3-2.1,11.5-9.8,9.3-17.1c-1.3-4.5-4.8-8-9.3-9.3v-19.7H82.7v-14.6h49.2
		c4,0,7.7-1.7,10.4-4.6l8.4,44.5c1.2,6.2,6.5,10.7,12.8,10.7c0.8,0,1.6-0.1,2.4-0.2l1.4-0.3c7-1.2,11.8-7.9,10.5-15
		c0-0.1,0-0.2,0-0.2l-13.8-74.9c-1.1-6.1-6.4-10.6-12.6-10.7c-1.1-0.3-2.1-0.5-3.2-0.5h-41.9l-3.2-34.4h8c-0.2,0.8-0.4,1.7-0.4,2.6
		v11.1c0,5.7,4.6,10.3,10.2,10.3h78v107h-19c-2.1,0-3.9,1.7-3.9,3.9c0,2.1,1.7,3.9,3.9,3.9h96c2.1,0,3.9-1.7,3.9-3.9
		c0-2.1-1.7-3.9-3.9-3.9h-44.3v-107h42.5c5.7,0,10.2-4.6,10.2-10.3v-11.1c0-5.7-4.6-10.2-10.2-10.2l0,0h-12.3l37.8-81.2
		C300.5,61.5,299.8,59.3,298.1,58.3z M46,285.1c0,3.3-2.7,6-6,6.1c-3.3,0-6-2.7-6.1-6c0-3.3,2.7-6,6-6.1c0,0,0,0,0,0
		C43.3,279.1,46,281.7,46,285.1z M78.1,291.1c-3.3-0.1-6-2.8-5.9-6.1c0.1-3.3,2.8-6,6.1-5.9c3.3,0.1,5.9,2.7,5.9,6c0,3.3-2.7,6-6,6
		C78.2,291.1,78.2,291.1,78.1,291.1z M122.3,285.1c0,3.3-2.7,6-6,6.1c-3.3,0-6-2.7-6.1-6c0-3.3,2.7-6,6-6.1c0,0,0.1,0,0.1,0
		C119.6,279.1,122.3,281.8,122.3,285.1z M20.9,186.1L7.8,54.7c-0.4-4.5,2.9-8.6,7.4-9c0,0,0,0,0,0H16c4.2,0,7.8,3.2,8.2,7.4
		l13.1,131.4c0.7,4.5-2.3,8.8-6.8,9.5c-4.5,0.7-8.8-2.3-9.5-6.8C21,186.8,20.9,186.5,20.9,186.1L20.9,186.1z M138.4,223.5
		c0,3.7-2.9,6.7-6.6,6.7c0,0-0.1,0-0.1,0H33.1c-3.7,0.1-6.7-2.9-6.8-6.6c0,0,0-0.1,0-0.1v-1.5c0-3.7,3-6.7,6.7-6.7h103.5
		c1.2,0,2.1,0.9,2.1,2.1l0,0L138.4,223.5z M98.8,190.8c0.2,2,1.9,3.5,3.9,3.5h45.4c0.5,0,1.1,0.1,1.6,0.3c0.4,0.1,0.8,0.1,1.2,0
		c2.6-0.2,5,1.7,5.4,4.3l13.9,74.8c0.2,1.4-0.1,2.7-0.9,3.9c-0.8,1.2-2,2-3.4,2.2l-1.4,0.2c-1.3,0.2-2.7-0.1-3.9-0.9
		c-1.2-0.8-2-2-2.2-3.4l-12.3-66.3c-0.3-1.9-2-3.2-3.9-3.2H64.4V84.5c2.7-1,5.5-1.4,8.3-1.1c3.1,0.3,6.1,1.2,8.8,2.7
		c3,1.5,5.8,3.5,8.2,5.9l3.4,37c0.2,2,1.9,3.5,3.9,3.5h45.3c3.3,0,6,2.7,6,6c0,3.3-2.7,6-6,6H98.8c-1.1,0-2.1,0.4-2.9,1.2
		c-0.7,0.8-1.1,1.9-1,3L98.8,190.8z M223.9,283.1h-17.2v-107h17.2V283.1z M276.5,154.7v11.1c0,1.4-1.1,2.5-2.5,2.6H120.9
		c-1.4,0-2.5-1.2-2.5-2.6v-11.1c0-1.4,1.1-2.5,2.5-2.5h0H274C275.4,152.2,276.5,153.3,276.5,154.7L276.5,154.7z M253.5,143.9h-85
		l1.7-4.8h73c1.5,0,2.8-0.9,3.4-2.3l36-78.9l8.4,5.1L253.5,143.9z"/>
</g>
</svg>
