<svg xmlns="http://www.w3.org/2000/svg" viewBox="0 0 714.17 715.08"><defs><style>.cls-1{fill:#0085ff;}</style></defs><g id="Layer_2" data-name="Layer 2"><g id="Layer_2-2" data-name="Layer 2"><path class="cls-1" d="M392.62,45.3l-6.62-1L382.94,0l6.62,1,1.85,33.8L405.94,3.39l6.14.9,4.85,34.25L428.45,6.71l6.38.94L419.12,49.2l-6.62-1-5-35.2Z"/><path class="cls-1" d="M491.53,49.17A22.35,22.35,0,0,1,480,61.9a22.29,22.29,0,0,1-8.37,2,22.84,22.84,0,0,1-8.93-1.38,22.56,22.56,0,0,1-7.75-4.64A22.08,22.08,0,0,1,449.77,51a22.32,22.32,0,0,1-2.07-8.33,22.61,22.61,0,0,1,5.95-16.5,22.45,22.45,0,0,1,6.91-5.09,22,22,0,0,1,8.34-2,23.52,23.52,0,0,1,16.69,6,22.34,22.34,0,0,1,5.15,6.9,22.43,22.43,0,0,1,.79,17.19Zm-6.24-2.25a16.85,16.85,0,0,0,1-6.51,16.45,16.45,0,0,0-1.41-6,15.31,15.31,0,0,0-3.62-5,16.09,16.09,0,0,0-5.5-3.3,15.74,15.74,0,0,0-6.31-1,15.47,15.47,0,0,0-5.92,1.52,16.18,16.18,0,0,0-4.94,3.76,17.49,17.49,0,0,0-4.4,12.19,15.64,15.64,0,0,0,5,11,15.33,15.33,0,0,0,5.46,3.32,16,16,0,0,0,12.3-.57,16.12,16.12,0,0,0,4.94-3.72A17.07,17.07,0,0,0,485.29,46.92Z"/><path class="cls-1" d="M499.82,77.53,521.59,40l17.06,9.9a15.09,15.09,0,0,1,7.24,8.32,12.66,12.66,0,0,1-7,15.22A13.24,13.24,0,0,1,531,74l-1,21-6.22-3.61,1.15-19.9L514.38,65.4l-8.93,15.39Zm35.48-23-10.94-6.35-7.28,12.55L528,67.08a9,9,0,0,0,6.3,1.32,7.09,7.09,0,0,0,5.27-9.09A9.09,9.09,0,0,0,535.3,54.53Z"/><path class="cls-1" d="M543.57,104.77l27.57-33.52,5,4.14L563.33,91l29.07-2.26,6.32,5.2-30.6,2,3.6,32-6.89-5.67L561.71,93,548.6,108.9Z"/><path class="cls-1" d="M606.53,167.29l-3.89-5.45,29.86-32.9,3.88,5.45-23.1,24.75L646,147.88l3.6,5.05-21.34,27.22,30.94-13.74,3.74,5.26-40.86,17.44-3.88-5.45,22-28Z"/><path class="cls-1" d="M635,212.41l38.7-19.66,2.95,5.8L638,218.21Z"/><path class="cls-1" d="M680.82,220.32l5.42-2,12.6,34.81-5.42,2-5.19-14.34-35.39,12.81-2.22-6.12L686,234.66Z"/><path class="cls-1" d="M662.18,283.51l42.71-7.71,1.16,6.41-18.31,3.3,4.1,22.7,18.3-3.3,1.16,6.41L668.59,319l-1.16-6.41L686,309.26,682,286.56l-18.61,3.35Z"/><path class="cls-1" d="M686.68,400.39a23,23,0,0,1-7.85-1.88,16.91,16.91,0,0,1-5.76-4.12,16.31,16.31,0,0,1-3.41-6.09,20.5,20.5,0,0,1-.8-7.74q.61-8.4,6.17-13t14.34-4l24.8,1.81-.48,6.5-24.79-1.82q-6-.43-9.83,2.55A12.28,12.28,0,0,0,677.81,390q3.35,3.51,9.35,3.95L712,395.71l-.47,6.5Z"/><path class="cls-1" d="M672.9,415.39l3.52,4.94a26.51,26.51,0,0,0-6.67,5.81,18.07,18.07,0,0,0-3.48,7.1,13,13,0,0,0,.2,7.86,6.13,6.13,0,0,0,4.37,4.09,5.27,5.27,0,0,0,4.79-.94c1.34-1.08,2.65-3.08,3.91-6l2.85-6.77q2.37-5.55,5.81-7.75a9.88,9.88,0,0,1,7.95-1.1,10.89,10.89,0,0,1,7.76,6.42q2.28,5.07.58,12.07a29.44,29.44,0,0,1-3.65,8.62,27.35,27.35,0,0,1-6.19,7l-4-4.66a28.92,28.92,0,0,0,5.56-5.93,20.15,20.15,0,0,0,3-6.62,11.75,11.75,0,0,0-.14-7.05,5.41,5.41,0,0,0-3.9-3.62,4.81,4.81,0,0,0-4.37.79,13.43,13.43,0,0,0-3.42,5.29l-2.74,6.55q-2.7,6.36-6.32,8.83a10.23,10.23,0,0,1-8.51,1.29,11.95,11.95,0,0,1-8.28-6.89,16.67,16.67,0,0,1-1.33-6,24.69,24.69,0,0,1,.73-7.1,25.59,25.59,0,0,1,4.36-9.28A26.49,26.49,0,0,1,672.9,415.39Z"/><path class="cls-1" d="M665,496.57l-9.85,20-4.79-2.35,9.86-20Z"/><path class="cls-1" d="M602.42,552.54l44.85,13.67-4.43,5.43-37.93-11.95,19.21,34.93-4.23,5.19L597.6,558.46Z"/><path class="cls-1" d="M574.83,583l29.87,31.49L600,618.94l-29.87-31.49Z"/><path class="cls-1" d="M555.25,600.87l25.84,34.87-25.71,19L552,650.2,572.46,635l-7.75-10.46-13.45,10-3.32-4.48,13.45-10-8-10.77-20.68,15.32-3.39-4.58Z"/><path class="cls-1" d="M502.83,635.4l6-2.93,27.54,34.85-6,2.94L509.77,643.4l5.73,34.11-5.58,2.72L486.58,654.7,495,687.48l-5.79,2.83-10.5-43.17,6-2.94,24,26.25Z"/><path class="cls-1" d="M410.84,672.11a17.43,17.43,0,0,0-6.74,2.77,15.91,15.91,0,0,0-4.9,5.27l-5-3.5a22.57,22.57,0,0,1,6.67-6.79,23.73,23.73,0,0,1,9.07-3.7,23.29,23.29,0,0,1,9.12.1,21.9,21.9,0,0,1,14,9.53,22.76,22.76,0,0,1,3.15,17.29,22,22,0,0,1-9.71,13.81A23.1,23.1,0,0,1,418,710.2a24.4,24.4,0,0,1-10-.23,21.15,21.15,0,0,1-8.58-4l3.47-5.17a16.87,16.87,0,0,0,6.64,3.27,17.43,17.43,0,0,0,7.36.23,16.37,16.37,0,0,0,6.06-2.36,15.21,15.21,0,0,0,4.41-4.3,16.24,16.24,0,0,0,2.39-5.73,17.54,17.54,0,0,0-2.32-12.75,15.67,15.67,0,0,0-4.28-4.48,16,16,0,0,0-5.71-2.46A16.62,16.62,0,0,0,410.84,672.11Z"/><path class="cls-1" d="M340.27,690.22a23.25,23.25,0,0,1,1.18-8,16.91,16.91,0,0,1,3.59-6.1,16.14,16.14,0,0,1,5.76-3.94,20.67,20.67,0,0,1,7.64-1.49q8.43-.13,13.5,5t5.22,13.93l.4,24.86-6.51.1-.4-24.85q-.09-6-3.41-9.56a12.27,12.27,0,0,0-17.36.28q-3.19,3.64-3.1,9.66l.41,24.86-6.51.11Z"/><path class="cls-1" d="M321.25,669.86l-7,42.83-19.46-3.17q-6.36-1-9.73-5.21a12.65,12.65,0,0,1,1.12-16.71,13.33,13.33,0,0,1,7.15-3.39l-6.54-20,7.1,1.15,6,19,12,2,2.87-17.56Zm-25,34.12,12.49,2,2.33-14.32-12.48-2a9,9,0,0,0-6.35,1A7.09,7.09,0,0,0,290.57,701,9.07,9.07,0,0,0,296.27,704Z"/><path class="cls-1" d="M270.68,660l-13.93,41.1-18.67-6.33q-6.11-2.07-8.75-6.73a12.66,12.66,0,0,1,3.86-16.3,13.31,13.31,0,0,1,7.6-2.17l-3.16-20.78,6.81,2.31,2.8,19.74,11.56,3.92,5.72-16.85Zm-30.24,29.55,12,4.06,4.66-13.74-12-4.06a9,9,0,0,0-6.43,0,7.1,7.1,0,0,0-3.37,10A9.08,9.08,0,0,0,240.44,689.53Z"/><path class="cls-1" d="M222.45,641.87l-20.38,38.32-28.25-15,2.68-5,22.5,12,6.11-11.5-14.78-7.86,2.62-4.93,14.78,7.86L214,643.85,191.3,631.77l2.68-5Z"/><path class="cls-1" d="M152.8,651.75l-5.05-3.9.51-40.25L128.6,633.08l-4.86-3.75L150.25,595l4.52,3.48-.62,41.5,20.3-26.31,4.86,3.75Z"/><path class="cls-1" d="M110.65,609.58l-4.24,3.91L81.29,586.31l4.24-3.91,10.35,11.2,27.64-25.54,4.42,4.78L100.3,598.38Z"/><path class="cls-1" d="M60.3,505.32q6.81-3.81,13.21-2t10.19,8.54A17.08,17.08,0,0,1,86,522.28,17.3,17.3,0,0,1,81.5,532l-5-4a13.61,13.61,0,0,0,3.29-6.68,10.23,10.23,0,0,0-1.34-6.58A10,10,0,0,0,72,509.56a11.64,11.64,0,0,0-8.65,1.5l-23.3,13.08-3.19-5.68Z"/><path class="cls-1" d="M31.91,446.7a22.46,22.46,0,0,1,17.18,1,22.46,22.46,0,0,1,6.85,5.23,23.5,23.5,0,0,1,5.84,16.74A22.08,22.08,0,0,1,59.66,478a22.46,22.46,0,0,1-5.16,6.85,22.64,22.64,0,0,1-16.57,5.78,21.79,21.79,0,0,1-15.14-7.35A23.5,23.5,0,0,1,17,466.5a22.32,22.32,0,0,1,2.11-8.36A22.43,22.43,0,0,1,31.91,446.7ZM34.09,453a16.86,16.86,0,0,0-5.71,3.31,16.32,16.32,0,0,0-3.8,4.9A15.3,15.3,0,0,0,23,467.11,16.5,16.5,0,0,0,27.14,479a15.45,15.45,0,0,0,4.92,3.64,16.3,16.3,0,0,0,6,1.47,17.5,17.5,0,0,0,12.23-4.27A15.6,15.6,0,0,0,55.68,469a16.06,16.06,0,0,0-9.06-15.52,16,16,0,0,0-6-1.48A16.89,16.89,0,0,0,34.09,453Z"/><path class="cls-1" d="M5.81,429.11l-2.9-18.56q-1-6.26,1.52-10.56a10.17,10.17,0,0,1,7.64-5.12,9.86,9.86,0,0,1,5.73.74,10.86,10.86,0,0,1,4.45,3.76,12.6,12.6,0,0,1,3.12-6.16,9.71,9.71,0,0,1,5.8-3,11,11,0,0,1,9.48,2.66q4,3.52,5,10.2l3,19.36Zm2.61-19.05,1.83,11.77,12.75-2-1.84-11.76a9.11,9.11,0,0,0-2.61-5.49,5.68,5.68,0,0,0-5-1.42A5.73,5.73,0,0,0,9.23,404,9.1,9.1,0,0,0,8.42,410.06Zm31.87-5.66a9.94,9.94,0,0,0-2.92-6.07,6.34,6.34,0,0,0-5.49-1.59,6.31,6.31,0,0,0-4.71,3.18,9.87,9.87,0,0,0-1,6.68L28.14,419l14.09-2.2Z"/><path class="cls-1" d="M24.67,300.81a22.32,22.32,0,0,1,15.16,8.13,22.54,22.54,0,0,1,4,7.63,23.62,23.62,0,0,1-1.78,17.65,22,22,0,0,1-5.44,6.64,22.47,22.47,0,0,1-7.58,4,22,22,0,0,1-8.9.87,22.07,22.07,0,0,1-8.55-2.63A22.54,22.54,0,0,1,5,337.67a22.21,22.21,0,0,1-4-7.6,23.59,23.59,0,0,1,1.78-17.64,22,22,0,0,1,13-10.75A22,22,0,0,1,24.67,300.81Zm-.67,6.6a16.71,16.71,0,0,0-6.57.58,16.25,16.25,0,0,0-5.52,2.84A15.27,15.27,0,0,0,8,315.54a16,16,0,0,0-1.87,6.14,15.82,15.82,0,0,0,.6,6.35,15.36,15.36,0,0,0,2.92,5.38,16.37,16.37,0,0,0,4.84,3.88,16.85,16.85,0,0,0,6.32,1.88,16.68,16.68,0,0,0,6.57-.58,15.72,15.72,0,0,0,9.43-7.52,15.55,15.55,0,0,0,1.89-6.1,15.74,15.74,0,0,0-8.36-15.68A16.85,16.85,0,0,0,24,307.41Z"/><path class="cls-1" d="M50.13,285.9l-41.71-12L14,254.6a14.55,14.55,0,0,1,6.32-8.86,12.2,12.2,0,0,1,10.11-1.19,12,12,0,0,1,7.84,6.39,14.57,14.57,0,0,1,.63,10.82l-3.75,13.05,16.8,4.84ZM19.27,256.83l-3.57,12.4,14.13,4.06,3.56-12.4a8.69,8.69,0,0,0-.27-6.36,6.83,6.83,0,0,0-4.52-3.66,6.73,6.73,0,0,0-5.75.7A8.87,8.87,0,0,0,19.27,256.83Z"/><path class="cls-1" d="M66,236.73,26.79,218.14l13.7-28.91,5.15,2.44-10.91,23,11.77,5.58,7.17-15.13,5,2.39-7.17,15.13,12.11,5.73,11-23.25,5.16,2.44Z"/><path class="cls-1" d="M52.91,167.64l3.67-5.23,40.22-1.35L70.45,142.6l3.52-5,35.55,24.9-3.28,4.67-41.48,1.3L92,187.51l-3.52,5Z"/><path class="cls-1" d="M122.75,147.57l-32-29.34,4.4-4.79,32,29.34Z"/><path class="cls-1" d="M113,95.05l4.89-4.1,39.2,9.15L136.41,75.42l4.71-3.94L169,104.76l-4.38,3.66L124.21,98.9l21.33,25.48-4.7,3.94Z"/><path class="cls-1" d="M211.17,54.46A22.47,22.47,0,0,1,214,62.8a21.33,21.33,0,0,1-.51,8.23,20.87,20.87,0,0,1-3.66,7.33A21.38,21.38,0,0,1,203.26,84a22.83,22.83,0,0,1-8.58,2.85,22.4,22.4,0,0,1-8.59-.6,22.56,22.56,0,0,1-16.31-19.13,22.45,22.45,0,0,1,.66-8.56,22,22,0,0,1,3.9-7.65A22.84,22.84,0,0,1,181.21,45,24.2,24.2,0,0,1,190.66,42a21.91,21.91,0,0,1,9.47,1l-1.76,6a16.32,16.32,0,0,0-7.22-.87,17.56,17.56,0,0,0-7,2.19,16.08,16.08,0,0,0-4.88,4.18,15.22,15.22,0,0,0-2.73,5.49,16,16,0,0,0-.36,6.18,17.74,17.74,0,0,0,6.39,11.27,16.37,16.37,0,0,0,5.51,2.88,15.51,15.51,0,0,0,6.13.52,15.73,15.73,0,0,0,6.16-2,14.55,14.55,0,0,0,6.84-7.88,13.36,13.36,0,0,0-.3-10l-12.58,7.1-2.8-5,18.52-10.45Z"/><path class="cls-1" d="M231.63,60.75l2.2-5.65a26.44,26.44,0,0,0,8.52,2.4,18,18,0,0,0,7.85-1,13,13,0,0,0,6.47-4.46,6.15,6.15,0,0,0,1-5.89,5.28,5.28,0,0,0-3.41-3.5c-1.64-.54-4-.53-7.17,0L239.9,44q-5.94,1.05-9.66-.62A9.86,9.86,0,0,1,225,37.32a10.89,10.89,0,0,1,1.12-10q3-4.68,9.79-7.09a29.54,29.54,0,0,1,9.22-1.65,27.28,27.28,0,0,1,9.23,1.36l-1.73,5.88a28.47,28.47,0,0,0-8-1.41,20.12,20.12,0,0,0-7.17,1.13,11.72,11.72,0,0,0-5.82,4,5.41,5.41,0,0,0-.9,5.25,4.82,4.82,0,0,0,3,3.23,13.58,13.58,0,0,0,6.3,0l7-1.29q6.79-1.23,10.85.46a10.24,10.24,0,0,1,5.73,6.42,11.92,11.92,0,0,1-1.24,10.7,16.81,16.81,0,0,1-4.27,4.38,24.9,24.9,0,0,1-6.34,3.27,25.52,25.52,0,0,1-10.15,1.42A26.65,26.65,0,0,1,231.63,60.75Z"/><path class="cls-1" d="M304,23l22.15-2.7.65,5.29-22.16,2.7Z"/></g></g></svg>